<svg height="511pt" viewBox="1 1 511 511.99975" width="511pt" xmlns="http://www.w3.org/2000/svg"><g fill="#c9f3ff"><path d="m348.5 154.027344v-3.527344c0-11.046875 8.953125-20 20-20s20 8.953125 20 20v36zm0 0"/><path d="m428.34375 219.832031v-3.824219c0-11.042968 8.953125-20 20-20s20 8.957032 20 20v36zm0 0"/><path d="m164.5 154.027344v-3.527344c0-11.046875-8.953125-20-20-20s-20 8.953125-20 20v36zm0 0"/><path d="m84.65625 219.832031v-3.824219c0-11.042968-8.953125-20-20-20s-20 8.957032-20 20v36zm0 0"/></g><path d="m52.5 329.476562 152-47.792968v-111.402344l-152 125.53125zm0 0" fill="#72d8ff"/><path d="m502.5 342.683594v-23.976563l-120.636719-97.921875c-12.234375-9.933594-30.519531-1.226562-30.519531 14.535156v59.835938zm0 0" fill="#72d8ff"/><path d="m158.78125 485.519531 60.089844-29.785156 3.191406-.007813c-6.640625-13.246093-11.472656-27.363281-14.371094-41.96875l-48.910156 49.058594zm0 0" fill="#72d8ff"/><path d="m343.046875 462.953125 44.421875 21.433594v-21.570313l-46.210938-46.347656c-1.761718 8.171875-4.136718 16.183594-7.097656 23.964844-3.308594 8.695312.507813 18.472656 8.886719 22.519531zm0 0" fill="#72d8ff"/><path d="m308.5 381.550781v-270.53125c0-29.566406-10.542969-57.78125-29.15625-79.90625-18.613281 22.125-29.15625 50.339844-29.15625 79.90625v270.53125c0 .6875.019531 1.375.027344 2.0625.316406 25.296875 6.410156 49.917969 17.535156 72.109375 3.402344 6.785156 7.277344 13.335938 11.59375 19.613282 4.371094-6.351563 8.289062-12.988282 11.71875-19.855469 11.046875-22.128907 17.097656-46.664063 17.410156-71.867188.007813-.691406.027344-1.375.027344-2.0625zm0 0" fill="#c9f3ff"/><path d="m508.867188 274.101562-30.523438-25.210937v-32.882813c0-16.539062-13.457031-30-30-30-11.542969 0-21.582031 6.5625-26.59375 16.144532l-23.25-19.199219v-32.453125c0-16.542969-13.457031-30-30-30-11.425781 0-21.375 6.421875-26.441406 15.84375l-23.558594-19.457031v-5.867188c0-43.230469-21.003906-84.039062-56.1875-109.160156-3.480469-2.480469-8.148438-2.480469-11.625 0-35.183594 25.121094-56.1875 65.929687-56.1875 109.160156v5.867188l-23.558594 19.457031c-5.066406-9.421875-15.015625-15.84375-26.441406-15.84375-16.542969 0-30 13.457031-30 30v32.453125l-23.25 19.203125c-5.011719-9.585938-15.050781-16.144531-26.59375-16.144531-16.542969 0-30 13.457031-30 30v32.882812l-30.523438 25.207031c-2.300781 1.898438-3.632812 4.726563-3.632812 7.710938v60.871094c0 3.183594 1.515625 6.179687 4.082031 8.0625 1.738281 1.273437 3.816407 1.9375 5.917969 1.9375 1.003906 0 2.015625-.152344 3-.460938l57.710938-18.144531c5.269531-1.65625 8.195312-7.269531 6.539062-12.539063-1.65625-5.269531-7.273438-8.199218-12.539062-6.539062l-44.710938 14.058594v-42.535156l174-143.699219v131.523437l-56.066406 17.628906c-5.269532 1.65625-8.195313 7.269532-6.539063 12.539063 1.34375 4.269531 5.285157 7 9.535157 7 .996093 0 2.003906-.148437 3.003906-.460937l50.066406-15.742188v84.164062l-76.050781 76.277344c-1.871094 1.875-2.917969 4.414063-2.917969 7.0625v39.183594c0 3.457031 1.789062 6.671875 4.726562 8.496094 1.609376 1 3.4375 1.503906 5.273438 1.503906 1.515625 0 3.039062-.34375 4.441406-1.039062l87.214844-43.230469c8.605469 15.292969 19.507812 29.347656 32.453125 41.546875 1.925781 1.816406 4.390625 2.722656 6.859375 2.722656 2.464844 0 4.929688-.90625 6.855469-2.722656 12.949219-12.199219 23.847656-26.253906 32.457031-41.546875l87.214844 43.230469c1.402344.695312 2.921875 1.039062 4.441406 1.039062 1.832031 0 3.664062-.503906 5.269531-1.503906 2.941407-1.824219 4.730469-5.035156 4.730469-8.496094v-39.183594c0-2.648437-1.050781-5.1875-2.917969-7.0625l-76.050781-76.277344v-84.164062l181 56.910156c.980469.308594 1.992188.460938 3 .460938 2.101562 0 4.179688-.664063 5.914062-1.9375 2.570313-1.882813 4.085938-4.878906 4.085938-8.0625v-60.871094c0-2.984375-1.332031-5.8125-3.632812-7.710938zm-374.367188-123.601562c0-5.515625 4.484375-10 10-10 5.328125 0 9.679688 4.1875 9.972656 9.445312l-19.972656 16.492188zm-79.84375 65.511719c0-5.515625 4.484375-10 10-10 5.464844 0 9.914062 4.40625 9.992188 9.851562l-19.992188 16.511719zm393.6875-10c5.515625 0 10 4.484375 10 10v16.363281l-19.992188-16.511719c.078126-5.445312 4.527344-9.851562 9.992188-9.851562zm-79.84375-65.511719c5.515625 0 10 4.484375 10 10v15.9375l-19.972656-16.492188c.292968-5.257812 4.644531-9.445312 9.972656-9.445312zm-232.96875 345.382812v-18.933593l60.71875-60.902344c2.144531 15.074219 6.242188 29.777344 12.132812 43.726563zm130.96875-9.890624v-96.992188c0-5.523438-4.476562-10-10-10s-10 4.476562-10 10v96.992188c-20.546875-26.9375-32-60.234376-32-94.441407v-99.835937c0-.035156 0-.070313 0-.109375v-170.585938c0-34.335937 15.578125-66.878906 42-88.445312 26.421875 21.566406 42 54.109375 42 88.445312v170.585938.109375 99.835937c0 34.207031-11.457031 67.503907-32 94.441407zm110.96875 9.890624-72.851562-36.109374c5.890624-13.945313 9.988281-28.648438 12.132812-43.726563l60.71875 60.902344zm115.03125-156.824218-174-54.710938v-131.523437l174 143.699219zm0 0"/><path d="m114.570312 305.109375c-1.859374-1.859375-4.441406-2.929687-7.070312-2.929687s-5.210938 1.070312-7.070312 2.929687c-1.859376 1.859375-2.929688 4.441406-2.929688 7.070313 0 2.640624 1.070312 5.210937 2.929688 7.070312 1.859374 1.871094 4.441406 2.929688 7.070312 2.929688s5.210938-1.058594 7.070312-2.929688c1.859376-1.859375 2.929688-4.429688 2.929688-7.070312 0-2.628907-1.070312-5.210938-2.929688-7.070313zm0 0"/><path d="m256.5 332.679688c-2.628906 0-5.210938 1.070312-7.070312 2.929687-1.859376 1.859375-2.929688 4.441406-2.929688 7.070313 0 2.640624 1.070312 5.21875 2.929688 7.070312 1.859374 1.871094 4.441406 2.941406 7.070312 2.941406s5.210938-1.070312 7.070312-2.941406c1.859376-1.859375 2.929688-4.429688 2.929688-7.070312 0-2.628907-1.070312-5.199219-2.929688-7.070313-1.859374-1.859375-4.441406-2.929687-7.070312-2.929687zm0 0"/></svg>