<svg height="511pt" viewBox="0 -79 511.99863 511" width="511pt" xmlns="http://www.w3.org/2000/svg"><path d="m152.65625 50.59375h58.15625c11.074219 0 20.046875-8.976562 20.046875-20.046875 0-11.074219-8.972656-20.050781-20.046875-20.050781h-58.15625c-14.125 0-23.824219 14.222656-18.660156 27.375 3.011718 7.675781 10.414062 12.722656 18.660156 12.722656zm0 0" fill="#b3b6c3"/><path d="m137.746094 147.496094c-41.726563 12.027344-72.25 50.496094-72.25 96.09375s30.523437 84.0625 72.25 96.089844c41.726562-12.027344 72.246094-50.492188 72.246094-96.089844s-30.519532-84.066406-72.246094-96.09375zm0 0" fill="#c9f3ff"/><path d="m429.234375 147.363281c-15.914063 4.492188-30.933594 12.992188-43.457031 25.515625-39.050782 39.050782-39.050782 102.367188 0 141.417969 12.523437 12.523437 27.542968 21.023437 43.457031 25.515625 15.914063-4.492188 30.9375-12.992188 43.460937-25.515625 39.050782-39.050781 39.050782-102.367187 0-141.417969-12.523437-12.523437-27.546874-21.023437-43.460937-25.515625zm0 0" fill="#c9f3ff"/><path d="m465.882812 180.210938c1.957032 1.976562 4.53125 2.964843 7.105469 2.964843 2.542969 0 5.085938-.964843 7.035157-2.894531 3.925781-3.886719 3.957031-10.21875.070312-14.140625l-.292969-.296875c-3.886719-3.925781-10.21875-3.957031-14.144531-.070312-3.921875 3.886718-3.953125 10.21875-.070312 14.140624zm0 0"/><path d="m503.015625 200.023438c-2.183594-5.074219-8.066406-7.414063-13.140625-5.226563-5.070312 2.183594-7.410156 8.066406-5.226562 13.140625 14.683593 34.074219 7.214843 73.046875-19.023438 99.289062-35.089844 35.089844-92.1875 35.089844-127.277344 0-35.089844-35.089843-35.089844-92.1875 0-127.277343 6.515625-6.511719 13.832032-11.867188 21.675782-16.015625l32.648437 83.304687c1.546875 3.941407 5.320313 6.351563 9.316406 6.351563 1.210938 0 2.445313-.222656 3.644531-.691406 5.140626-2.015626 7.675782-7.816407 5.660157-12.960938l-32.65625-83.320312c18.777343-5.054688 39.09375-3.976563 57.933593 3.855468 5.097657 2.121094 10.949219-.296875 13.070313-5.394531 2.121094-5.101563-.296875-10.953125-5.394531-13.070313-23.746094-9.867187-49.40625-10.957031-72.945313-4.105468l-45.652343-116.472656h60.539062c4.40625 0 8.4375 2.03125 11.058594 5.574218 2.617187 3.542969 3.378906 7.988282 2.089844 12.203125-1.78125 5.8125-7.0625 9.722657-13.144532 9.722657h-18.535156c-5.523438 0-10 4.476562-10 10 0 5.523437 4.476562 10 10 10h18.535156c14.929688 0 27.894532-9.59375 32.269532-23.867188 3.164062-10.339844 1.292968-21.257812-5.136719-29.949219-6.429688-8.695312-16.320313-13.683593-27.132813-13.683593h-75.203125c-3.304687 0-6.398437 1.632812-8.257812 4.367187-1.863281 2.730469-2.257813 6.207031-1.050781 9.28125l25.675781 65.515625h-117.148438l-5.59375-20h6.199219c16.570312 0 30.046875-13.476562 30.046875-30.046875 0-16.566406-13.476563-30.046875-30.046875-30.046875h-58.152344c-9.945312 0-19.226562 4.902344-24.828125 13.121094-5.601562 8.214844-6.777343 18.644531-3.144531 27.902344 4.542969 11.585937 15.523438 19.070312 27.972656 19.070312h31.1875l6.652344 23.78125c-.304688.378906-.582031.785156-.832031 1.21875l-33.566407 58.140625c-14.03125-6.503906-29.652343-10.140625-46.105468-10.140625-60.652344 0-109.996094 49.34375-109.996094 109.996094 0 37.160156 18.527344 70.074218 46.828125 89.996094h-28.496094c-5.523437 0-10 4.476562-10 10 0 5.523437 4.476563 10 10 10h181.660157c5.523437 0 10-4.476563 10-10 0-5.523438-4.476563-10-10-10h-26.828126c25.734376-18.113282 43.378907-46.972657 46.367188-79.996094h18.574219l6.699219 21h-4.8125c-5.523438 0-10 4.476562-10 10 0 5.519531 4.476562 10 10 10h18.5c3.191406 0 6.191406-1.523438 8.074218-4.101563 1.882813-2.578125 2.421875-5.898437 1.453125-8.9375l-11.667969-36.570312 83.46875-132.589844 12.867188 32.832031c-10.335938 5.199219-19.972656 12.078125-28.480469 20.589844-42.886719 42.886719-42.886719 112.667969 0 155.558594 4.558594 4.558594 9.425781 8.625 14.527344 12.214844h-45.167969c-5.519531 0-10 4.476562-10 10 0 5.523437 4.480469 10 10 10h108.421875c.375 0 .742188-.023438 1.109375-.066407 27.796875-.277343 55.507813-10.988281 76.667969-32.152343 15.878906-15.878907 26.398437-35.910157 30.421875-57.925782 3.925781-21.492187 1.445312-43.425781-7.171875-63.417968zm-359.710937-165.804688c-1.234376-3.144531-.851563-6.542969 1.050781-9.332031 1.902343-2.789063 4.929687-4.386719 8.304687-4.386719h58.152344c5.539062 0 10.046875 4.507812 10.046875 10.046875 0 5.542969-4.507813 10.050781-10.046875 10.050781h-58.152344c-4.164062-.003906-7.835937-2.503906-9.355468-6.378906zm180.308593 66.375-74.644531 118.578125-33.167969-118.578125zm-213.617187 232.992188c-49.625 0-89.996094-40.371094-89.996094-89.996094s40.371094-90 89.996094-90c12.816406 0 25.007812 2.699218 36.054687 7.550781l-44.714843 77.449219c-1.785157 3.09375-1.785157 6.90625 0 10 1.785156 3.09375 5.085937 5 8.660156 5h89.4375c-4.988282 44.933594-43.195313 79.996094-89.4375 79.996094zm53.359375-162.421876c19.679687 14.535157 33.242187 36.882813 36.078125 62.425782h-72.117188zm56.175781 62.425782c-2.980469-32.921875-20.523438-61.707032-46.125-79.832032l24.585938-42.585937 34.242187 122.417969zm0 0"/><path d="m252.492188 333.585938c-2.632813 0-5.210938 1.070312-7.070313 2.929687s-2.929687 4.441406-2.929687 7.070313c0 2.628906 1.066406 5.210937 2.929687 7.070312 1.859375 1.859375 4.4375 2.929688 7.070313 2.929688 2.628906 0 5.207031-1.070313 7.066406-2.929688s2.933594-4.441406 2.933594-7.070312c0-2.628907-1.070313-5.210938-2.933594-7.070313-1.859375-1.859375-4.4375-2.929687-7.066406-2.929687zm0 0"/></svg>