<svg height="512pt" viewBox="0 -108 512 512" width="512pt" xmlns="http://www.w3.org/2000/svg"><path d="m306.777344 10h-65.925782c-37.417968 0-67.75 30.332031-67.75 67.75v54.09375h231.195313l-33.828125-79.691406c-10.851562-25.554688-35.925781-42.152344-63.691406-42.152344zm0 0" fill="#c9f3ff"/><path d="m444.527344 131.839844h-274.386719c-31.742187 0-57.476563 25.730468-57.476563 57.472656v65.519531h389.335938v-65.519531c0-31.738281-25.730469-57.472656-57.472656-57.472656zm0 0" fill="#4dbaf6"/><g fill="#fff"><path d="m10 189.3125v11.5h40.265625v-36.785156h-34.40625c-3.75 7.628906-5.859375 16.210937-5.859375 25.285156zm0 0"/><path d="m431.890625 169.773438h66.695313c-7.996094-22.121094-29.179688-37.933594-54.058594-37.933594h-12.636719zm0 0"/><path d="m114.46875 254.730469c0-12.394531 7.019531-23.140625 17.300781-28.5-4.441406-2.316407-9.484375-3.632813-14.835937-3.632813-17.746094 0-32.132813 14.386719-32.132813 32.132813 0 17.75 14.386719 32.136719 32.132813 32.136719 5.355468 0 10.394531-1.316407 14.835937-3.632813-10.28125-5.359375-17.300781-16.105469-17.300781-28.503906zm0 0"/></g><path d="m149.070312 254.730469c0-12.394531-7.023437-23.140625-17.300781-28.5-10.28125 5.359375-17.300781 16.109375-17.300781 28.5 0 12.394531 7.019531 23.144531 17.300781 28.503906 10.277344-5.359375 17.300781-16.105469 17.300781-28.503906zm0 0" fill="#898998"/><path d="m408.726562 254.730469c0-12.394531 7.019532-23.140625 17.300782-28.5-4.4375-2.316407-9.480469-3.632813-14.832032-3.632813-17.75 0-32.136718 14.386719-32.136718 32.132813 0 17.75 14.386718 32.136719 32.136718 32.136719 5.351563 0 10.394532-1.316407 14.832032-3.632813-10.28125-5.359375-17.300782-16.105469-17.300782-28.503906zm0 0" fill="#fff"/><path d="m443.328125 254.730469c0-12.394531-7.023437-23.140625-17.300781-28.5-10.28125 5.359375-17.300782 16.109375-17.300782 28.5 0 12.394531 7.019532 23.144531 17.300782 28.503906 10.277344-5.359375 17.300781-16.105469 17.300781-28.503906zm0 0" fill="#898998"/><path d="m444.527344 121.839844h-33.613282l-31.242187-73.597656c-12.441406-29.304688-41.054687-48.242188-72.894531-48.242188h-50.933594c-5.519531 0-10 4.476562-10 10s4.480469 10 10 10h50.933594c23.796875 0 45.183594 14.152344 54.484375 36.0625l27.925781 65.777344h-131.789062v-73.21875c0-5.523438-4.480469-10-10-10-5.523438 0-10 4.476562-10 10v73.21875h-136.902344v-44.089844c0-31.84375 25.90625-57.75 57.75-57.75h20.609375c5.523437 0 10-4.476562 10-10s-4.476563-10-10-10h-20.609375c-42.871094 0-77.75 34.878906-77.75 77.75v44.089844h-13.023438c-37.203125 0-67.472656 30.269531-67.472656 67.472656v65.519531c0 5.523438 4.476562 10 10 10h37c5.523438 0 10-4.476562 10-10 0-5.519531-4.476562-10-10-10h-27v-34.019531h30.265625c5.523437 0 10-4.476562 10-10v-36.785156c0-5.523438-4.476563-10-10-10h-14.507813c8.414063-7.570313 19.53125-12.183594 31.714844-12.183594h354.417969v27.929688c0 5.523437 4.480469 10 10 10h59.144531c.632813 3.082031.964844 6.273437.964844 9.542968v55.519532h-18.886719c-5.519531 0-10 4.476562-10 10 0 5.519531 4.480469 10 10 10h28.886719c5.523438 0 10-4.480469 10-10v-65.519532c0-37.207031-30.269531-67.476562-67.472656-67.476562zm-404.261719 68.972656h-20.265625v-1.5c0-5.347656.902344-10.484375 2.539062-15.285156h17.726563zm401.628906-31.039062v-17.933594h2.632813c15.015625 0 28.417968 7.015625 37.121094 17.933594zm0 0"/><path d="m340 244.832031c-2.628906 0-5.210938 1.070313-7.070312 2.929688-1.859376 1.859375-2.929688 4.441406-2.929688 7.070312 0 2.632813 1.070312 5.210938 2.929688 7.070313 1.859374 1.859375 4.441406 2.929687 7.070312 2.929687s5.210938-1.070312 7.070312-2.929687c1.859376-1.859375 2.929688-4.4375 2.929688-7.070313 0-2.628906-1.070312-5.210937-2.929688-7.070312-1.859374-1.859375-4.441406-2.929688-7.070312-2.929688zm0 0"/><path d="m302.332031 244.832031h-44.933593v-23.917969c0-5.519531-4.480469-10-10-10-5.523438 0-10 4.480469-10 10v23.917969h-52.398438c-5.523438 0-10 4.476563-10 10 0 5.523438 4.476562 10 10 10h117.332031c5.523438 0 10-4.476562 10-10 0-5.523437-4.476562-10-10-10zm0 0"/><path d="m217.777344 20.003906c2.632812 0 5.203125-1.070312 7.070312-2.933594 1.863282-1.855468 2.929688-4.4375 2.929688-7.066406 0-2.640625-1.066406-5.210937-2.929688-7.070312-1.859375-1.859375-4.4375-2.92968775-7.070312-2.92968775-2.636719 0-5.207032 1.06640575-7.066406 2.92968775-1.859376 1.859375-2.933594 4.429687-2.933594 7.070312 0 2.628906 1.070312 5.210938 2.933594 7.066406 1.859374 1.863282 4.429687 2.933594 7.066406 2.933594zm0 0"/><path d="m206.632812 188.585938 22.433594-.148438c5.523438-.039062 9.972656-4.546875 9.933594-10.070312-.035156-5.5-4.507812-9.929688-9.996094-9.929688-.023437 0-.046875 0-.070312 0l-22.433594.148438c-5.523438.035156-9.96875 4.542968-9.933594 10.066406.039063 5.5 4.507813 9.933594 10 9.933594zm0 0"/><path d="m116.933594 212.597656c-23.230469 0-42.132813 18.902344-42.132813 42.132813 0 23.234375 18.902344 42.136719 42.132813 42.136719 23.234375 0 42.136718-18.902344 42.136718-42.136719 0-23.230469-18.902343-42.132813-42.136718-42.132813zm0 64.269532c-12.203125 0-22.132813-9.929688-22.132813-22.136719 0-12.203125 9.929688-22.132813 22.132813-22.132813 12.207031 0 22.136718 9.929688 22.136718 22.132813 0 12.207031-9.929687 22.136719-22.136718 22.136719zm0 0"/><path d="m411.191406 212.597656c-23.230468 0-42.132812 18.902344-42.132812 42.132813 0 23.234375 18.902344 42.136719 42.132812 42.136719 23.234375 0 42.136719-18.902344 42.136719-42.136719 0-23.230469-18.902344-42.132813-42.136719-42.132813zm0 64.269532c-12.203125 0-22.132812-9.929688-22.132812-22.136719 0-12.203125 9.929687-22.132813 22.132812-22.132813 12.207032 0 22.136719 9.929688 22.136719 22.132813 0 12.207031-9.929687 22.136719-22.136719 22.136719zm0 0"/></svg>