<?xml version="1.0" encoding="utf-8"?>
<!-- Generator: Adobe Illustrator 16.0.0, SVG Export Plug-In . SVG Version: 6.00 Build 0)  -->
<!DOCTYPE svg PUBLIC "-//W3C//DTD SVG 1.1//EN" "http://www.w3.org/Graphics/SVG/1.1/DTD/svg11.dtd">
<svg version="1.1" id="Layer_1" xmlns="http://www.w3.org/2000/svg" xmlns:xlink="http://www.w3.org/1999/xlink" x="0px" y="0px"
	 width="840px" height="465px" viewBox="0 0 840 465" enable-background="new 0 0 840 465" xml:space="preserve">
<path fill="#E9F6FF" d="M0,0v121.199c11.054,8.458,25.81,10.765,39.067,5.765l66.991-25.267
	c10.944-4.127,19.582-12.766,23.709-23.709l25.267-66.991C156.388,7.407,157.193,3.707,157.5,0H0z"/>
<path fill="#D4ECFF" d="M840,98.596l-66.153-41.02c-7.378-4.558-9.665-14.232-5.108-21.61L790.951,0H840V98.596z"/>
<g>
	<g>
		
			<rect x="813.635" y="185.972" transform="matrix(0.2481 0.9687 -0.9687 0.2481 795.2303 -647.2444)" fill="#5793CE" width="1.842" height="5.352"/>
		
			<rect x="810.99" y="188.552" transform="matrix(0.2485 0.9686 -0.9686 0.2485 795.3676 -642.7347)" fill="#5793CE" width="1.843" height="5.352"/>
		
			<rect x="808.345" y="191.132" transform="matrix(0.248 0.9688 -0.9688 0.248 796.3059 -638.2407)" fill="#5793CE" width="1.843" height="5.352"/>
		
			<rect x="805.7" y="193.712" transform="matrix(0.2485 0.9686 -0.9686 0.2485 796.3906 -633.7335)" fill="#5793CE" width="1.843" height="5.353"/>
	</g>
	<g>
		<path fill="#5793CE" d="M368.868,420.533l1.07-1.814c0,0,0.893,0.492,1.852,0.191c0.766-0.242,1.429-0.934,1.971-2.057
			c1.91-3.961,5.438-4.26,7.037-3.865l-0.505,2.045l0.252-1.023l-0.244,1.024c-0.306-0.07-3.04-0.589-4.644,2.733
			c-0.813,1.686-1.916,2.75-3.277,3.164C370.56,421.482,369.037,420.631,368.868,420.533z"/>
	</g>
	<path fill="#D4ECFF" d="M616.076,166.766c-5.322,0-9.652-4.329-9.652-9.651s4.33-9.651,9.652-9.651s9.651,4.329,9.651,9.651
		S621.398,166.766,616.076,166.766z M616.076,149.569c-4.161,0-7.546,3.385-7.546,7.546s3.385,7.546,7.546,7.546
		s7.546-3.385,7.546-7.546S620.237,149.569,616.076,149.569z"/>
	<path fill="#5793CE" d="M570.663,400.779c-3.773,0-6.844-3.07-6.844-6.844s3.07-6.844,6.844-6.844s6.844,3.07,6.844,6.844
		S574.437,400.779,570.663,400.779z M570.663,389.197c-2.612,0-4.738,2.126-4.738,4.738s2.126,4.738,4.738,4.738
		s4.738-2.126,4.738-4.738S573.275,389.197,570.663,389.197z"/>
	<path fill="#5793CE" d="M779.393,398.419l-4.645-9.448l9.448-4.646l4.645,9.449L779.393,398.419z M777.566,389.931l2.786,5.67
		l5.671-2.788l-2.788-5.67L777.566,389.931z"/>
	
		<rect x="776.135" y="60.342" transform="matrix(0.8974 -0.4412 0.4412 0.8974 52.1923 349.9631)" fill="#5793CE" width="4.84" height="4.841"/>
	<g>
		
			<rect x="465.8" y="386.371" transform="matrix(0.7071 0.7071 -0.7071 0.7071 413.4796 -215.484)" fill="#D4ECFF" width="2.105" height="10.002"/>
		
			<rect x="461.851" y="390.32" transform="matrix(0.7072 0.7071 -0.7071 0.7072 413.4377 -215.4803)" fill="#D4ECFF" width="10.002" height="2.105"/>
	</g>
	<circle fill="#D4ECFF" cx="762.805" cy="11.872" r="4.967"/>
	<circle fill="#D4ECFF" cx="631.18" cy="290.147" r="2.887"/>
</g>
<g>
	<g>
		
			<rect x="62.971" y="378.721" transform="matrix(-0.969 -0.247 0.247 -0.969 31.6153 766.7602)" fill="#5793CE" width="1.843" height="5.353"/>
		
			<rect x="61.974" y="375.164" transform="matrix(-0.9693 -0.2459 0.2459 -0.9693 30.9482 759.5441)" fill="#5793CE" width="1.843" height="5.353"/>
		
			<rect x="60.978" y="371.606" transform="matrix(-0.969 -0.247 0.247 -0.969 29.4481 752.256)" fill="#5793CE" width="1.843" height="5.35"/>
		
			<rect x="59.98" y="368.047" transform="matrix(-0.9691 -0.2468 0.2468 -0.9691 28.4125 745.0089)" fill="#5793CE" width="1.844" height="5.353"/>
	</g>
	<g>
		<path fill="#5793CE" d="M321.115,319.942l1.08,1.81c0,0-0.86,0.547-1.056,1.533c-0.154,0.787,0.135,1.701,0.861,2.715
			c2.56,3.574,1.132,6.814,0.02,8.029l-1.553-1.424l0.777,0.711l-0.782-0.705c0.208-0.234,1.975-2.385-0.173-5.385
			c-1.09-1.522-1.496-3-1.206-4.393C319.472,320.973,320.948,320.043,321.115,319.942z"/>
	</g>
	<path fill="#D4ECFF" d="M250.906,112.727c2.551-4.671,8.426-6.397,13.097-3.846c4.671,2.551,6.395,8.426,3.844,13.097
		s-8.425,6.396-13.096,3.845S248.355,117.397,250.906,112.727z M266,120.968c1.994-3.652,0.646-8.245-3.006-10.239
		c-3.652-1.994-8.245-0.646-10.239,3.006c-1.995,3.652-0.646,8.245,3.006,10.239C259.413,125.969,264.005,124.621,266,120.968z"/>
	<path fill="#5793CE" d="M107.048,52.86c1.809-3.312,5.975-4.535,9.287-2.727s4.535,5.975,2.727,9.287
		c-1.809,3.312-5.975,4.535-9.287,2.727C106.463,60.338,105.24,56.172,107.048,52.86z M117.213,58.411
		c1.252-2.292,0.405-5.177-1.888-6.43c-2.292-1.252-5.177-0.405-6.429,1.888c-1.252,2.292-0.405,5.177,1.888,6.429
		C113.077,61.551,115.961,60.704,117.213,58.411z"/>
	<path fill="#5793CE" d="M154.146,127.002l10.519,0.452l-0.451,10.519l-10.519-0.452L154.146,127.002z M162.471,129.467
		l-6.312-0.272l-0.271,6.313l6.313,0.27L162.471,129.467z"/>
	
		<rect x="175.101" y="324.565" transform="matrix(-0.0427 0.9991 -0.9991 -0.0427 511.7841 163.5784)" fill="#5793CE" width="4.84" height="4.841"/>
	<g>
		
			<rect x="127.552" y="238.05" transform="matrix(-0.9596 0.2812 -0.2812 -0.9596 320.3676 440.1294)" fill="#D4ECFF" width="2.104" height="10.003"/>
		
			<rect x="123.603" y="241.999" transform="matrix(-0.9595 0.2817 -0.2817 -0.9595 320.4763 440.0236)" fill="#D4ECFF" width="10.003" height="2.105"/>
	</g>
	<circle fill="#D4ECFF" cx="148.726" cy="449.999" r="4.967"/>
	<circle fill="#D4ECFF" cx="2.19" cy="140.075" r="2.887"/>
</g>
</svg>
