<?xml version="1.0" encoding="utf-8"?>
<!-- Generator: Adobe Illustrator 16.0.0, SVG Export Plug-In . SVG Version: 6.00 Build 0)  -->
<!DOCTYPE svg PUBLIC "-//W3C//DTD SVG 1.1//EN" "http://www.w3.org/Graphics/SVG/1.1/DTD/svg11.dtd">
<svg version="1.1" id="Layer_1" xmlns="http://www.w3.org/2000/svg" xmlns:xlink="http://www.w3.org/1999/xlink" x="0px" y="0px"
	 width="564px" height="560px" viewBox="0 0 564 560" enable-background="new 0 0 564 560" xml:space="preserve">
<g>
	<g>
		<path fill="#D4ECFF" d="M310.75,510.934L95.344,386.57c-6.093-3.519-5.329-9.665,1.707-13.726l146.674-84.655
			c7.037-4.063,17.68-4.504,23.774-0.985l215.405,124.365c6.093,3.518,5.328,9.662-1.708,13.725l-146.675,84.654
			C327.486,514.01,316.842,514.452,310.75,510.934z"/>
		<g>
			<path fill="#6754E2" d="M490.872,166.932L271.913,40.622c-2.819-1.627-5.411-1.877-7.497-1.007l0.01-0.026l-0.359,0.166
				c-0.028,0.014-0.059,0.026-0.087,0.041l-7.129,3.354l7.74,3.852c-0.003,0.145-0.017,0.281-0.017,0.428l0.067,179.84
				c0.003,9,5.572,19.507,12.44,23.469l213.12,122.943l1.211,10.03l7.781-3.713c2.564-1.505,4.188-4.909,4.187-9.759l-0.066-179.84
				C503.311,181.4,497.74,170.893,490.872,166.932z"/>
			<path fill="#887AE8" d="M490.872,166.932L271.913,40.622c-2.819-1.627-5.411-1.877-7.497-1.007l0.01-0.026l-0.359,0.166
				c-0.028,0.014-0.059,0.026-0.087,0.041l-7.129,3.354l7.74,3.852c-0.003,0.145-0.017,0.281-0.017,0.428l0.043,118.525
				l99.648,78.733l135.299-68.09C497.322,172.43,494.258,168.885,490.872,166.932z"/>
			<path fill="#7563E5" d="M494.531,169.761l-21.459,9.026l16.201,12.482l13.528-5.76
				C501.626,179.597,498.506,173.654,494.531,169.761z"/>
			<path fill="#D4ECFF" d="M483.743,382.76L264.785,256.449c-6.867-3.962-12.438-14.469-12.441-23.469l-0.067-179.84
				c-0.003-9,5.56-13.084,12.429-9.123l218.958,126.311c6.869,3.961,12.439,14.469,12.442,23.469l0.067,179.84
				C496.177,382.636,490.611,386.72,483.743,382.76z"/>
			<path fill="#FFFFFF" d="M476.46,369.382L271.964,251.471c-6.286-3.625-11.383-13.24-11.386-21.476l-0.061-164.569
				c-0.003-8.236,5.088-11.974,11.375-8.348l204.496,117.91c6.284,3.626,11.381,13.24,11.384,21.477l0.063,164.567
				C487.836,369.27,482.744,373.006,476.46,369.382z"/>
			<path fill="#FFFFFF" d="M476.46,369.382L271.964,251.471c-6.286-3.625-11.383-13.24-11.386-21.476l-0.061-164.569
				c-0.003-8.236,5.088-11.974,11.375-8.348l204.496,117.91c6.284,3.626,11.381,13.24,11.384,21.477l0.063,164.567
				C487.836,369.27,482.744,373.006,476.46,369.382z"/>
		</g>
		<path fill="#6754E2" d="M487.013,388.346l-29.443-3.89L267.5,274.72c-6.094-3.518-16.738-3.077-23.774,0.986l-134.681,77.73
			l-17.805-2.352v10.104l0.018,0.001c-0.117,2.336,1.212,4.581,4.087,6.241L310.75,491.794c6.092,3.519,16.736,3.077,23.772-0.985
			l146.675-84.655c3.958-2.284,5.932-5.229,5.815-7.994l0,0V388.346z"/>
		<path fill="#887AE8" d="M344.202,319.004l-13.504-7.797H182.235l-73.19,42.229l-17.805-2.352v10.104l0.018,0.001
			c-0.117,2.336,1.212,4.581,4.087,6.241L310.75,491.794c3.219,1.859,7.711,2.602,12.269,2.299L344.202,319.004z"/>
		<path fill="#A498EE" d="M99.141,352.129l-7.901-1.045v10.104l0.018,0.001c-0.117,2.336,1.212,4.581,4.087,6.241l3.796,2.191
			V352.129z"/>
		<path fill="#7563E5" d="M312.919,492.802c5.775,2.189,14.033,1.713,20.199-1.255v-22.533h-20.199V492.802z"/>
		<path fill="#D4ECFF" d="M310.75,481.703L95.344,357.34c-6.093-3.519-5.329-9.665,1.707-13.726l146.674-84.655
			c7.037-4.062,17.68-4.504,23.774-0.986l215.405,124.365c6.093,3.519,5.328,9.663-1.708,13.726l-146.675,84.653
			C327.486,484.779,316.842,485.222,310.75,481.703z"/>
		<path fill="#FFFFFF" d="M481.197,392.374l-146.675,84.653c-7.036,4.063-17.681,4.504-23.772,0.986L95.344,353.65
			c-1.998-1.154-3.244-2.592-3.788-4.145c-0.953,2.882,0.262,5.797,3.788,7.834L310.75,481.703
			c6.092,3.519,16.736,3.078,23.772-0.984l146.675-84.655c4.729-2.73,6.611-6.399,5.495-9.582
			C485.998,388.58,484.161,390.663,481.197,392.374z"/>
		<g>
			<path fill="#6754E2" d="M186.959,316.167l-9.745-5.627c-0.783-0.452-0.686-1.241,0.218-1.762l11.503-6.642
				c0.905-0.522,2.271-0.579,3.053-0.128l9.747,5.628c0.783,0.451,0.684,1.24-0.22,1.763l-11.504,6.642
				C189.108,316.563,187.742,316.619,186.959,316.167z"/>
			<path fill="#6754E2" d="M202.011,324.858l-9.747-5.628c-0.783-0.452-0.684-1.241,0.22-1.764l11.503-6.642
				c0.904-0.522,2.271-0.577,3.053-0.126l9.745,5.626c0.784,0.453,0.685,1.243-0.218,1.764l-11.503,6.642
				C204.16,325.253,202.793,325.31,202.011,324.858z"/>
			<path fill="#6754E2" d="M217.061,333.547l-9.745-5.627c-0.783-0.452-0.685-1.241,0.218-1.762l11.503-6.643
				c0.903-0.521,2.271-0.579,3.053-0.127l9.747,5.627c0.783,0.452,0.685,1.241-0.22,1.764l-11.503,6.642
				C219.21,333.941,217.844,333.999,217.061,333.547z"/>
			<path fill="#6754E2" d="M237.878,326.371l-9.747-5.628c-0.783-0.451-0.684-1.24,0.22-1.761l9.656-5.576
				c0.904-0.521,2.271-0.579,3.053-0.127l9.747,5.627c0.783,0.452,0.684,1.241-0.22,1.762l-9.656,5.575
				C240.028,326.766,238.661,326.823,237.878,326.371z"/>
			<path fill="#6754E2" d="M252.928,335.06l-9.745-5.625c-0.783-0.454-0.685-1.243,0.218-1.764l9.658-5.575
				c0.903-0.522,2.27-0.578,3.053-0.128l9.745,5.628c0.783,0.451,0.686,1.24-0.218,1.763l-9.658,5.575
				C255.078,335.456,253.711,335.512,252.928,335.06z"/>
			<path fill="#6754E2" d="M267.98,343.751l-9.747-5.628c-0.783-0.452-0.684-1.241,0.22-1.764l9.656-5.575
				c0.904-0.521,2.271-0.577,3.053-0.126l9.747,5.628c0.783,0.451,0.684,1.241-0.22,1.763l-9.656,5.576
				C270.13,344.146,268.763,344.202,267.98,343.751z"/>
			<path fill="#6754E2" d="M283.03,352.439l-9.745-5.628c-0.782-0.449-0.685-1.239,0.218-1.761l9.658-5.576
				c0.903-0.521,2.271-0.579,3.054-0.126l9.745,5.626c0.782,0.452,0.685,1.241-0.219,1.764l-9.658,5.575
				C285.18,352.834,283.813,352.892,283.03,352.439z"/>
			<path fill="#6754E2" d="M298.082,361.13l-9.746-5.627c-0.783-0.452-0.684-1.241,0.22-1.762l9.656-5.576
				c0.903-0.521,2.271-0.579,3.053-0.127l9.747,5.627c0.782,0.452,0.684,1.241-0.22,1.762l-9.656,5.575
				C300.231,361.524,298.865,361.582,298.082,361.13z"/>
			<path fill="#6754E2" d="M313.133,369.819l-9.745-5.626c-0.783-0.454-0.686-1.243,0.218-1.764l9.658-5.575
				c0.903-0.522,2.271-0.578,3.053-0.128l9.745,5.628c0.783,0.451,0.686,1.241-0.218,1.763l-9.658,5.576
				C315.282,370.215,313.915,370.272,313.133,369.819z"/>
			<path fill="#6754E2" d="M328.185,378.51l-9.747-5.628c-0.782-0.451-0.684-1.241,0.22-1.763l9.656-5.576
				c0.903-0.521,2.271-0.577,3.054-0.126l9.746,5.628c0.783,0.451,0.684,1.241-0.22,1.764l-9.656,5.575
				C330.334,378.904,328.967,378.961,328.185,378.51z"/>
			<path fill="#6754E2" d="M343.234,387.198l-9.745-5.627c-0.782-0.45-0.685-1.239,0.219-1.762l9.657-5.576
				c0.904-0.521,2.271-0.579,3.054-0.126l9.745,5.626c0.782,0.454,0.685,1.241-0.219,1.764l-9.657,5.575
				C345.384,387.593,344.018,387.65,343.234,387.198z"/>
			<path fill="#6754E2" d="M358.286,395.889l-9.746-5.627c-0.783-0.452-0.684-1.241,0.22-1.762l9.656-5.575
				c0.903-0.522,2.271-0.58,3.053-0.128l9.747,5.627c0.782,0.452,0.684,1.241-0.22,1.762l-9.656,5.576
				C360.437,396.283,359.069,396.341,358.286,395.889z"/>
			<path fill="#6754E2" d="M373.339,404.578l-9.747-5.626c-0.783-0.453-0.686-1.241,0.218-1.764l9.658-5.575
				c0.903-0.522,2.271-0.578,3.053-0.128l9.745,5.628c0.783,0.451,0.686,1.241-0.218,1.764l-9.658,5.575
				C375.486,404.975,374.119,405.029,373.339,404.578z"/>
			<path fill="#887AE8" d="M260.054,322.257l-9.745-5.628c-0.783-0.451-0.685-1.24,0.22-1.762l9.656-5.575
				c0.904-0.522,2.271-0.577,3.053-0.127l9.745,5.627c0.783,0.452,0.685,1.241-0.218,1.762l-9.658,5.575
				C262.203,322.651,260.836,322.708,260.054,322.257z"/>
			<path fill="#887AE8" d="M244.778,313.437l-9.745-5.626c-0.782-0.453-0.685-1.242,0.218-1.763l9.658-5.575
				c0.903-0.522,2.271-0.578,3.053-0.128l9.745,5.628c0.783,0.451,0.686,1.24-0.218,1.763l-9.658,5.575
				C246.928,313.833,245.561,313.889,244.778,313.437z"/>
			<path fill="#6754E2" d="M229.478,304.604l-20.99-12.12c-0.783-0.451-0.686-1.24,0.218-1.762l9.658-5.575
				c0.903-0.522,2.271-0.579,3.051-0.127l20.992,12.119c0.783,0.452,0.685,1.241-0.218,1.762l-9.658,5.575
				C231.627,304.998,230.261,305.056,229.478,304.604z"/>
			<path fill="#6754E2" d="M240.174,293.86l-17.035-9.835c-0.783-0.452-0.685-1.24,0.22-1.762l9.656-5.576
				c0.904-0.522,2.271-0.58,3.053-0.128l17.035,9.836c0.781,0.451,0.684,1.24-0.22,1.763l-9.656,5.574
				C242.323,294.256,240.957,294.313,240.174,293.86z"/>
			<path fill="#887AE8" d="M275.105,330.945l-9.745-5.626c-0.782-0.451-0.685-1.24,0.218-1.763l9.656-5.575
				c0.904-0.521,2.271-0.578,3.053-0.126l9.747,5.627c0.782,0.45,0.685,1.239-0.221,1.762l-9.656,5.575
				C277.255,331.342,275.888,331.399,275.105,330.945z"/>
			<path fill="#6754E2" d="M290.157,339.636l-9.746-5.627c-0.783-0.452-0.686-1.241,0.218-1.764l9.658-5.573
				c0.903-0.522,2.271-0.579,3.053-0.128l9.745,5.628c0.782,0.451,0.686,1.24-0.218,1.763l-9.656,5.575
				C292.307,340.031,290.94,340.088,290.157,339.636z"/>
			<path fill="#6754E2" d="M305.208,348.327l-9.747-5.628c-0.782-0.452-0.684-1.241,0.22-1.764l9.656-5.575
				c0.905-0.522,2.271-0.577,3.053-0.126l9.747,5.626c0.783,0.453,0.686,1.243-0.22,1.764l-9.656,5.575
				C307.357,348.722,305.99,348.776,305.208,348.327z"/>
			<path fill="#6754E2" d="M320.26,357.016l-9.747-5.628c-0.782-0.451-0.685-1.24,0.219-1.761l9.657-5.576
				c0.904-0.521,2.271-0.579,3.054-0.127l9.746,5.627c0.783,0.452,0.684,1.241-0.22,1.764l-9.658,5.573
				C322.407,357.41,321.042,357.468,320.26,357.016z"/>
			<path fill="#6754E2" d="M335.31,365.704l-9.747-5.625c-0.78-0.452-0.683-1.241,0.221-1.764l9.656-5.575
				c0.903-0.521,2.271-0.578,3.053-0.126l9.747,5.627c0.782,0.45,0.685,1.239-0.219,1.762l-9.657,5.575
				C337.459,366.101,336.093,366.158,335.31,365.704z"/>
			<path fill="#6754E2" d="M350.361,374.396l-9.746-5.628c-0.783-0.452-0.686-1.241,0.218-1.762l9.658-5.575
				c0.903-0.522,2.271-0.579,3.053-0.128l9.745,5.628c0.783,0.451,0.686,1.241-0.218,1.763l-9.656,5.576
				C352.512,374.79,351.145,374.847,350.361,374.396z"/>
			<path fill="#6754E2" d="M365.412,383.086l-9.747-5.628c-0.782-0.451-0.684-1.241,0.22-1.763l9.656-5.574
				c0.905-0.523,2.271-0.579,3.054-0.128l9.746,5.626c0.783,0.453,0.686,1.243-0.22,1.764l-9.656,5.575
				C367.562,383.48,366.194,383.536,365.412,383.086z"/>
			<path fill="#6754E2" d="M380.464,391.774l-9.747-5.627c-0.782-0.452-0.684-1.241,0.221-1.762l9.655-5.575
				c0.904-0.522,2.271-0.58,3.054-0.128l9.747,5.627c0.782,0.452,0.683,1.241-0.221,1.764l-9.657,5.575
				C382.611,392.169,381.245,392.227,380.464,391.774z"/>
			<path fill="#6754E2" d="M395.514,400.464l-9.745-5.626c-0.782-0.452-0.685-1.241,0.219-1.764l9.656-5.575
				c0.903-0.521,2.271-0.578,3.053-0.126l9.747,5.627c0.782,0.45,0.686,1.24-0.219,1.762l-9.657,5.576
				C397.664,400.859,396.297,400.917,395.514,400.464z"/>
			<path fill="#6754E2" d="M422.271,415.913l-21.265-12.277c-0.782-0.452-0.685-1.241,0.219-1.764l9.656-5.575
				c0.903-0.522,2.271-0.577,3.053-0.126l21.266,12.277c0.782,0.452,0.686,1.241-0.219,1.762l-9.657,5.576
				C424.421,416.308,423.054,416.365,422.271,415.913z"/>
			<path fill="#6754E2" d="M451.574,398.996l-17.949-10.363c-0.782-0.452-0.684-1.241,0.22-1.764l9.656-5.575
				c0.903-0.522,2.271-0.578,3.054-0.126l17.948,10.361c0.782,0.453,0.686,1.243-0.218,1.764l-9.658,5.575
				C453.724,399.391,452.356,399.447,451.574,398.996z"/>
			<path fill="#6754E2" d="M301.463,329.246l-9.745-5.627c-0.782-0.452-0.686-1.241,0.218-1.762l9.658-5.576
				c0.903-0.521,2.271-0.579,3.053-0.127l9.746,5.627c0.782,0.452,0.685,1.241-0.219,1.764l-9.658,5.573
				C303.612,329.643,302.245,329.698,301.463,329.246z"/>
			<path fill="#6754E2" d="M286.038,320.341l-9.747-5.628c-0.782-0.451-0.683-1.241,0.22-1.763l9.656-5.576
				c0.904-0.521,2.271-0.577,3.054-0.126l9.747,5.628c0.782,0.452,0.683,1.241-0.221,1.764l-9.656,5.575
				C288.188,320.735,286.82,320.792,286.038,320.341z"/>
			<path fill="#887AE8" d="M270.612,311.436l-9.745-5.628c-0.783-0.452-0.685-1.241,0.218-1.764l9.658-5.573
				c0.903-0.524,2.271-0.579,3.053-0.128l9.745,5.626c0.782,0.453,0.686,1.242-0.219,1.764l-9.658,5.575
				C272.761,311.83,271.395,311.885,270.612,311.436z"/>
			<path fill="#6754E2" d="M255.187,302.527l-9.747-5.625c-0.782-0.454-0.683-1.241,0.22-1.764l9.656-5.575
				c0.903-0.522,2.271-0.578,3.053-0.126l9.747,5.626c0.783,0.451,0.684,1.241-0.22,1.763l-9.656,5.576
				C257.336,302.924,255.97,302.981,255.187,302.527z"/>
			<path fill="#6754E2" d="M316.515,337.935l-9.747-5.625c-0.782-0.452-0.684-1.241,0.221-1.764l9.656-5.575
				c0.903-0.521,2.27-0.578,3.053-0.126l9.747,5.627c0.782,0.45,0.683,1.239-0.221,1.762l-9.656,5.575
				C318.664,338.331,317.297,338.389,316.515,337.935z"/>
			<path fill="#6754E2" d="M331.564,346.626l-9.745-5.628c-0.782-0.452-0.685-1.241,0.219-1.762l9.658-5.575
				c0.903-0.522,2.271-0.579,3.053-0.128l9.745,5.628c0.782,0.451,0.686,1.241-0.219,1.763l-9.657,5.576
				C333.715,347.021,332.348,347.077,331.564,346.626z"/>
			<path fill="#6754E2" d="M346.617,355.316l-9.747-5.628c-0.782-0.451-0.684-1.241,0.22-1.763l9.656-5.576
				c0.903-0.521,2.271-0.577,3.053-0.126l9.747,5.626c0.783,0.453,0.684,1.243-0.22,1.764l-9.656,5.575
				C348.767,355.711,347.399,355.767,346.617,355.316z"/>
			<path fill="#6754E2" d="M361.667,364.005l-9.745-5.626c-0.782-0.453-0.686-1.242,0.219-1.763l9.657-5.575
				c0.903-0.522,2.271-0.58,3.054-0.128l9.745,5.627c0.782,0.452,0.685,1.241-0.219,1.764l-9.658,5.575
				C363.816,364.399,362.449,364.457,361.667,364.005z"/>
			<path fill="#6754E2" d="M376.719,372.694l-9.747-5.626c-0.782-0.452-0.683-1.241,0.221-1.764l9.656-5.575
				c0.903-0.521,2.271-0.578,3.053-0.126l9.747,5.627c0.782,0.45,0.684,1.24-0.221,1.762l-9.655,5.576
				C378.868,373.09,377.502,373.147,376.719,372.694z"/>
			<path fill="#6754E2" d="M391.77,381.385l-9.745-5.628c-0.783-0.451-0.686-1.239,0.218-1.762l9.658-5.575
				c0.903-0.522,2.271-0.579,3.053-0.128l9.745,5.628c0.783,0.451,0.686,1.241-0.218,1.764l-9.658,5.575
				C393.919,381.779,392.552,381.836,391.77,381.385z"/>
			<path fill="#6754E2" d="M406.821,390.075l-9.747-5.628c-0.782-0.451-0.684-1.24,0.22-1.763l9.656-5.575
				c0.903-0.522,2.271-0.578,3.054-0.126l9.746,5.627c0.783,0.452,0.684,1.241-0.22,1.762l-9.656,5.575
				C408.971,390.47,407.604,390.525,406.821,390.075z"/>
			<path fill="#6754E2" d="M421.871,398.764l-9.745-5.627c-0.782-0.452-0.685-1.241,0.219-1.762l9.657-5.575
				c0.904-0.522,2.271-0.58,3.054-0.128l9.745,5.627c0.782,0.452,0.685,1.241-0.219,1.764l-9.657,5.575
				C424.021,399.16,422.654,399.216,421.871,398.764z"/>
			<path fill="#6754E2" d="M436.923,407.453l-9.746-5.626c-0.783-0.452-0.684-1.241,0.22-1.764l9.656-5.575
				c0.903-0.521,2.271-0.578,3.053-0.126l9.747,5.628c0.782,0.449,0.684,1.239-0.22,1.762l-9.656,5.575
				C439.072,407.85,437.706,407.906,436.923,407.453z"/>
			<path fill="#6754E2" d="M293.538,307.752l-9.747-5.627c-0.782-0.45-0.684-1.239,0.22-1.762l9.656-5.575
				c0.904-0.522,2.271-0.58,3.054-0.126l9.746,5.625c0.783,0.452,0.686,1.241-0.22,1.764l-9.656,5.575
				C295.688,308.146,294.32,308.204,293.538,307.752z"/>
			<path fill="#6754E2" d="M278.562,299.105l-9.747-5.626c-0.781-0.452-0.684-1.241,0.22-1.764l9.656-5.575
				c0.904-0.521,2.271-0.577,3.053-0.126l9.747,5.628c0.782,0.45,0.685,1.239-0.219,1.762l-9.657,5.575
				C280.711,299.502,279.344,299.559,278.562,299.105z"/>
			<path fill="#6754E2" d="M263.585,290.46l-9.745-5.627c-0.783-0.452-0.685-1.241,0.218-1.762l9.656-5.577
				c0.905-0.521,2.271-0.578,3.053-0.126l9.747,5.627c0.783,0.452,0.685,1.241-0.218,1.762l-9.658,5.575
				C265.735,290.854,264.368,290.912,263.585,290.46z"/>
			<path fill="#6754E2" d="M248.609,281.813l-9.745-5.628c-0.783-0.452-0.685-1.241,0.218-1.762l9.656-5.576
				c0.905-0.521,2.271-0.578,3.053-0.126l9.747,5.627c0.783,0.452,0.686,1.241-0.218,1.763l-9.658,5.576
				C250.759,282.208,249.392,282.265,248.609,281.813z"/>
			<path fill="#6754E2" d="M264.01,272.922l-9.747-5.626c-0.782-0.452-0.685-1.241,0.219-1.763l3.194-1.843
				c0.903-0.521,2.271-0.579,3.051-0.127l9.747,5.627c0.783,0.452,0.684,1.241-0.22,1.763l-3.19,1.843
				C266.16,273.317,264.793,273.374,264.01,272.922z"/>
			<path fill="#6754E2" d="M283.553,284.206l-9.745-5.627c-0.783-0.452-0.685-1.241,0.218-1.763l3.192-1.842
				c0.903-0.522,2.271-0.579,3.053-0.127l9.747,5.627c0.782,0.452,0.683,1.241-0.221,1.763l-3.192,1.843
				C285.702,284.601,284.337,284.656,283.553,284.206z"/>
			<path fill="#6754E2" d="M298.467,292.816l-9.747-5.628c-0.78-0.451-0.684-1.241,0.221-1.763l3.192-1.843
				c0.903-0.522,2.271-0.579,3.053-0.126l9.747,5.626c0.782,0.452,0.684,1.241-0.221,1.764l-3.192,1.844
				C300.616,293.211,299.249,293.268,298.467,292.816z"/>
			<path fill="#6754E2" d="M313.381,301.426l-9.747-5.625c-0.782-0.454-0.683-1.243,0.221-1.764l3.192-1.844
				c0.903-0.521,2.271-0.578,3.053-0.126l9.745,5.627c0.782,0.452,0.686,1.241-0.218,1.762l-3.192,1.844
				C315.53,301.822,314.164,301.878,313.381,301.426z"/>
			<path fill="#6754E2" d="M328.295,310.038l-9.746-5.628c-0.783-0.451-0.684-1.241,0.22-1.763l3.192-1.843
				c0.903-0.522,2.271-0.579,3.053-0.128l9.745,5.628c0.783,0.452,0.686,1.241-0.218,1.762l-3.192,1.844
				C330.445,310.433,329.078,310.488,328.295,310.038z"/>
			<path fill="#6754E2" d="M411.557,358.107l-9.747-5.626c-0.782-0.452-0.685-1.241,0.221-1.764l3.192-1.844
				c0.903-0.521,2.271-0.577,3.053-0.126l9.745,5.628c0.782,0.451,0.686,1.241-0.22,1.763l-3.191,1.843
				C413.706,358.504,412.34,358.561,411.557,358.107z"/>
			<path fill="#6754E2" d="M426.47,366.719l-9.745-5.627c-0.783-0.452-0.686-1.241,0.218-1.762l3.192-1.844
				c0.903-0.522,2.271-0.578,3.053-0.128l9.747,5.627c0.783,0.452,0.684,1.241-0.22,1.764l-3.192,1.842
				C428.619,367.113,427.252,367.171,426.47,366.719z"/>
			<path fill="#6754E2" d="M441.384,375.329l-9.745-5.628c-0.783-0.451-0.686-1.241,0.218-1.762l3.192-1.844
				c0.903-0.522,2.271-0.577,3.054-0.126l9.746,5.628c0.783,0.451,0.684,1.24-0.22,1.762l-3.192,1.844
				C443.533,375.724,442.166,375.78,441.384,375.329z"/>
			<path fill="#6754E2" d="M456.298,383.938l-9.747-5.626c-0.782-0.451-0.684-1.24,0.22-1.763l3.192-1.844
				c0.904-0.521,2.271-0.578,3.054-0.126l9.747,5.627c0.78,0.452,0.683,1.241-0.221,1.764l-3.192,1.842
				C458.447,384.335,457.08,384.393,456.298,383.938z"/>
			<path fill="#6754E2" d="M308.59,316.442l-9.747-5.627c-0.782-0.452-0.685-1.241,0.219-1.764l9.658-5.575
				c0.903-0.521,2.27-0.577,3.053-0.126l9.745,5.628c0.782,0.451,0.686,1.24-0.219,1.762l-9.657,5.575
				C310.738,316.838,309.372,316.895,308.59,316.442z"/>
			<path fill="#6754E2" d="M323.641,325.132l-9.747-5.626c-0.783-0.453-0.684-1.241,0.22-1.764l9.656-5.575
				c0.903-0.522,2.271-0.577,3.053-0.127l9.747,5.627c0.782,0.452,0.684,1.241-0.22,1.764l-9.656,5.575
				C325.79,325.528,324.423,325.583,323.641,325.132z"/>
			<path fill="#6754E2" d="M338.69,333.822l-9.745-5.627c-0.783-0.452-0.686-1.241,0.22-1.764l9.656-5.575
				c0.903-0.521,2.271-0.578,3.053-0.126l9.745,5.627c0.783,0.452,0.686,1.241-0.218,1.762l-9.658,5.575
				C340.84,334.217,339.473,334.274,338.69,333.822z"/>
			<path fill="#6754E2" d="M353.742,342.511l-9.747-5.627c-0.78-0.45-0.684-1.239,0.221-1.762l9.655-5.575
				c0.904-0.522,2.271-0.579,3.054-0.126l9.747,5.626c0.782,0.451,0.685,1.24-0.221,1.763l-9.656,5.575
				C355.892,342.906,354.524,342.963,353.742,342.511z"/>
			<path fill="#6754E2" d="M368.794,351.202l-9.747-5.628c-0.782-0.451-0.685-1.241,0.219-1.764l9.658-5.573
				c0.903-0.522,2.271-0.579,3.053-0.128l9.745,5.628c0.782,0.451,0.686,1.241-0.218,1.762l-9.656,5.575
				C370.943,351.597,369.577,351.653,368.794,351.202z"/>
			<path fill="#6754E2" d="M383.845,359.891l-9.747-5.626c-0.783-0.453-0.684-1.242,0.22-1.763l9.656-5.576
				c0.905-0.521,2.271-0.577,3.053-0.127l9.747,5.629c0.783,0.45,0.684,1.239-0.22,1.762l-9.656,5.575
				C385.994,360.287,384.627,360.343,383.845,359.891z"/>
			<path fill="#6754E2" d="M398.896,368.581l-9.747-5.627c-0.782-0.452-0.686-1.241,0.22-1.764l9.656-5.575
				c0.903-0.521,2.271-0.578,3.054-0.126l9.745,5.627c0.784,0.452,0.685,1.241-0.219,1.762l-9.658,5.575
				C401.044,368.976,399.677,369.033,398.896,368.581z"/>
			<path fill="#6754E2" d="M413.946,377.271l-9.747-5.628c-0.78-0.45-0.683-1.239,0.221-1.762l9.656-5.575
				c0.903-0.522,2.271-0.579,3.053-0.126l9.747,5.626c0.782,0.451,0.685,1.241-0.22,1.763L417,377.145
				C416.096,377.666,414.729,377.722,413.946,377.271z"/>
			<path fill="#6754E2" d="M428.998,385.961l-9.746-5.628c-0.783-0.451-0.686-1.241,0.218-1.762l9.658-5.575
				c0.903-0.522,2.271-0.579,3.053-0.128l9.745,5.628c0.783,0.451,0.686,1.241-0.218,1.762l-9.656,5.575
				C431.148,386.355,429.781,386.412,428.998,385.961z"/>
			<path fill="#6754E2" d="M222.539,317.515l-28.703-16.572c-0.783-0.451-0.684-1.239,0.22-1.762l9.656-5.575
				c0.903-0.522,2.271-0.579,3.053-0.126l28.703,16.571c0.783,0.45,0.685,1.24-0.218,1.762l-9.658,5.576
				C224.688,317.91,223.322,317.968,222.539,317.515z"/>
			<path fill="#6754E2" d="M407.445,424.271l-28.703-16.573c-0.782-0.45-0.685-1.239,0.219-1.762l9.658-5.575
				c0.903-0.522,2.271-0.58,3.053-0.126l28.703,16.571c0.782,0.452,0.684,1.239-0.22,1.762l-9.656,5.575
				C409.596,424.666,408.229,424.723,407.445,424.271z"/>
			<path fill="#6754E2" d="M347.255,408.714l-9.747-5.627c-0.782-0.452-0.685-1.241,0.221-1.764l11.503-6.64
				c0.903-0.522,2.271-0.58,3.053-0.128l9.746,5.627c0.782,0.452,0.685,1.241-0.219,1.762l-11.504,6.644
				C349.404,409.108,348.037,409.166,347.255,408.714z"/>
			<path fill="#6754E2" d="M237.954,345.609l-15.587-8.999c-0.783-0.452-0.686-1.241,0.22-1.764l11.503-6.642
				c0.904-0.521,2.271-0.578,3.053-0.126l15.586,8.999c0.783,0.452,0.685,1.24-0.218,1.762l-11.503,6.643
				C240.103,346.004,238.736,346.062,237.954,345.609z"/>
			<path fill="#6754E2" d="M332.752,400.341l-15.587-9c-0.781-0.449-0.684-1.239,0.22-1.761l11.503-6.643
				c0.904-0.521,2.271-0.577,3.054-0.127l15.587,8.999c0.783,0.452,0.684,1.241-0.22,1.764l-11.503,6.642
				C334.901,400.737,333.535,400.793,332.752,400.341z"/>
			<path fill="#6754E2" d="M259.669,358.146l-15.587-8.998c-0.783-0.451-0.684-1.24,0.22-1.763l11.503-6.642
				c0.903-0.522,2.271-0.578,3.053-0.128l15.586,9c0.783,0.451,0.685,1.24-0.218,1.763l-11.503,6.642
				C261.819,358.54,260.452,358.598,259.669,358.146z"/>
			<path fill="#6754E2" d="M258.964,340.678l67.767,39.125c0.841,0.485,0.841,1.272,0,1.758L315,388.334
				c-0.842,0.485-2.205,0.485-3.045,0l-67.768-39.126L258.964,340.678z"/>
			<path fill="#6754E2" d="M389.319,424.47l10.856,6.269c0.642,0.37,0.562,1.017-0.18,1.444l-4.705,2.718
				c-0.741,0.426-1.861,0.473-2.502,0.102l-10.857-6.267c-0.642-0.371-0.561-1.018,0.18-1.446l4.705-2.716
				C387.558,424.146,388.68,424.099,389.319,424.47z"/>
			<path fill="#6754E2" d="M374.145,415.708L385,421.976c0.642,0.369,0.561,1.018-0.18,1.444l-4.706,2.717
				c-0.74,0.429-1.86,0.474-2.502,0.104l-10.856-6.268c-0.642-0.371-0.562-1.018,0.18-1.445l4.705-2.718
				C372.381,415.385,373.503,415.337,374.145,415.708z"/>
			<path fill="#6754E2" d="M359.093,407.018l10.856,6.268c0.642,0.371,0.562,1.018-0.18,1.446l-4.707,2.717
				c-0.74,0.427-1.86,0.474-2.502,0.103l-10.855-6.268c-0.642-0.371-0.561-1.018,0.18-1.444l4.706-2.717
				C357.331,406.693,358.451,406.646,359.093,407.018z"/>
			<path fill="#6754E2" d="M382.455,410.909l10.857,6.267c0.64,0.371,0.561,1.019-0.182,1.446l-4.705,2.716
				c-0.74,0.428-1.861,0.475-2.502,0.104l-10.855-6.267c-0.642-0.37-0.561-1.019,0.178-1.444l4.707-2.718
				C380.694,410.585,381.814,410.539,382.455,410.909z"/>
		</g>
	</g>
</g>
<g>
	<path opacity="0.4" fill="#D4ECFF" d="M360.267,207.222l-71.454-41.255c-1.755-1.012-3.179-3.732-3.179-6.072v-56.221
		c0-2.341,1.424-3.416,3.179-2.403l71.454,41.254c1.757,1.014,3.179,3.732,3.179,6.074v56.22
		C363.445,207.16,362.023,208.235,360.267,207.222z"/>
	<g>
		<path fill="#B2D3EA" d="M310.421,169.254l-0.504-0.291c-1.862-1.076-3.372-3.96-3.372-6.443v-26.792
			c0-2.483,1.51-3.624,3.372-2.549l0.504,0.291c1.862,1.076,3.372,3.961,3.372,6.444v26.792
			C313.793,169.188,312.283,170.329,310.421,169.254z"/>
		<path fill="#B2D3EA" d="M324.792,177.552l-0.504-0.291c-1.862-1.077-3.372-3.961-3.372-6.444v-15.682
			c0-2.484,1.51-3.624,3.372-2.549l0.504,0.291c1.862,1.075,3.372,3.96,3.372,6.444v15.681
			C328.164,177.484,326.654,178.626,324.792,177.552z"/>
		<path fill="#396CAA" d="M339.162,185.848l-0.502-0.291c-1.864-1.075-3.374-3.96-3.374-6.444v-37.324
			c0-2.483,1.51-3.625,3.374-2.55l0.502,0.291c1.862,1.076,3.372,3.96,3.372,6.443v37.325
			C342.534,185.782,341.024,186.924,339.162,185.848z"/>
	</g>
</g>
<g>
	<path fill="#B2D3EA" d="M428.394,192.104l-44.395-25.63c-1.646-0.95-2.979-3.5-2.979-5.694l0,0c0-2.195,1.334-3.205,2.979-2.254
		l44.395,25.63c1.646,0.951,2.979,3.501,2.979,5.696l0,0C431.373,192.046,430.04,193.055,428.394,192.104z"/>
	<path fill="#B2D3EA" d="M399.835,191.23l-15.836-9.144c-1.646-0.95-2.979-3.5-2.979-5.695l0,0c0-2.194,1.334-3.203,2.979-2.253
		l15.836,9.143c1.646,0.951,2.98,3.5,2.98,5.695l0,0C402.815,191.171,401.48,192.18,399.835,191.23z"/>
	<path fill="#396CAA" d="M426.412,206.574l-15.836-9.144c-1.646-0.95-2.98-3.5-2.98-5.694l0,0c0-2.195,1.335-3.204,2.98-2.253
		l15.836,9.143c1.646,0.951,2.979,3.5,2.979,5.695l0,0C429.392,206.515,428.058,207.523,426.412,206.574z"/>
	<path fill="#B2D3EA" d="M459.806,225.915l-22.654-13.141c-1.646-0.951-2.98-3.5-2.98-5.694l0,0c0-2.195,1.335-3.205,2.98-2.254
		l22.654,13.141c1.647,0.951,2.981,3.5,2.981,5.695l0,0C462.787,225.856,461.453,226.864,459.806,225.915z"/>
	<path fill="#B2D3EA" d="M439.468,229.724l-55.469-32.025c-1.646-0.95-2.979-3.5-2.979-5.695l0,0c0-2.195,1.334-3.203,2.979-2.253
		l55.469,32.024c1.646,0.95,2.979,3.5,2.979,5.694l0,0C442.446,229.665,441.113,230.674,439.468,229.724z"/>
	<path fill="#396CAA" d="M462.787,258.621l-78.788-45.309c-1.646-0.951-2.979-3.5-2.979-5.695l0,0c0-2.195,1.334-3.204,2.979-2.253
		l78.788,45.31c1.646,0.95,2.98,3.5,2.98,5.695l0,0C465.768,258.563,464.433,259.571,462.787,258.621z"/>
	<path fill="#B2D3EA" d="M469.45,215.74l-28.802-16.559c-1.646-0.951-2.981-3.5-2.981-5.695l0,0c0-2.194,1.335-3.203,2.981-2.252
		l28.802,16.559c1.646,0.95,2.98,3.501,2.98,5.695l0,0C472.431,215.682,471.096,216.69,469.45,215.74z"/>
</g>
<g>
	<polygon fill="#396CAA" points="299.465,216.937 285.448,208.846 285.448,225.029 299.465,233.121 	"/>
	<polygon fill="#D4ECFF" points="321.604,216.351 307.589,208.26 307.589,237.811 321.604,245.904 	"/>
	<polygon fill="#D4ECFF" points="343.745,237.578 329.729,229.486 329.729,250.594 343.745,258.686 	"/>
	<polygon fill="#D4ECFF" points="365.886,244.262 351.87,236.17 351.87,263.377 365.886,271.469 	"/>
	<polygon fill="#396CAA" points="388.026,258.687 374.012,250.595 374.012,276.161 388.026,284.252 	"/>
	<polygon fill="#173D7A" points="410.166,265.035 396.152,256.942 396.152,288.942 410.166,297.035 	"/>
	<polygon fill="#D4ECFF" points="432.309,274.402 418.293,266.311 418.293,301.726 432.309,309.817 	"/>
	<polygon fill="#396CAA" points="454.449,278.549 440.433,270.457 440.433,314.508 454.449,322.601 	"/>
</g>
<g>
	
		<rect x="546.289" y="206.413" transform="matrix(0.2479 0.9688 -0.9688 0.2479 616.5054 -372.064)" fill="#5793CE" width="3.168" height="9.203"/>
	
		<rect x="541.74" y="210.85" transform="matrix(0.2487 0.9686 -0.9686 0.2487 616.9083 -364.3813)" fill="#5793CE" width="3.169" height="9.204"/>
	
		<rect x="537.191" y="215.287" transform="matrix(0.2481 0.9687 -0.9687 0.2481 618.132 -356.5947)" fill="#5793CE" width="3.169" height="9.204"/>
	
		<rect x="532.643" y="219.723" transform="matrix(0.2484 0.9687 -0.9687 0.2484 618.8391 -348.8784)" fill="#5793CE" width="3.169" height="9.205"/>
</g>
<polygon fill="#274F89" points="365.209,397.232 336.966,380.926 308.723,397.232 336.966,413.539 "/>
<polygon fill="#274F89" points="276.182,400.079 247.939,383.772 219.696,400.079 247.939,416.384 "/>
<polygon fill="#274F89" points="216.411,365.839 188.168,349.532 159.925,365.839 188.168,382.146 "/>
<g>
	<g>
		<g>
			<polygon fill="#8576E8" points="247.939,400.079 247.939,313.111 276.182,296.805 276.182,383.772 			"/>
			<polygon fill="#A297ED" points="276.182,296.805 247.939,280.498 219.694,296.805 247.939,313.111 			"/>
			<polygon fill="#A498EE" points="247.939,313.111 219.694,296.805 219.694,383.772 247.939,400.079 			"/>
			<polygon fill="#887AE8" points="247.939,400.079 247.939,313.111 276.182,296.805 276.182,383.772 			"/>
			<polygon fill="#EDEAFC" points="276.182,296.805 247.939,280.498 219.694,296.805 247.939,313.111 			"/>
		</g>
		<g>
			<polygon fill="#6754E2" points="307.89,435.155 307.89,386.236 336.133,369.93 336.133,418.849 			"/>
			<polygon fill="#887AE8" points="307.89,386.236 279.646,369.93 279.646,418.849 307.89,435.155 			"/>
			<polygon fill="#EDEAFC" points="336.133,369.93 307.89,353.623 279.646,369.93 307.89,386.236 			"/>
		</g>
		<g>
			<polygon fill="#EDEAFC" points="188.168,365.839 188.168,246.259 216.411,229.953 216.411,349.532 			"/>
			<polygon fill="#887AE8" points="188.168,246.259 159.925,229.953 159.925,349.532 188.168,365.839 			"/>
			<polygon fill="#A498EE" points="216.411,229.953 188.168,213.646 159.925,229.953 188.168,246.259 			"/>
		</g>
	</g>
</g>
<g>
	<g>
		<path fill="#A498EE" d="M171.346,297.554c0,0-4.664-2.353-7.528,1.148c-2.863,3.503-6.958,11.769-7.083,17.356
			c-0.128,5.585,4.42,5.207,7.124,3.886c2.702-1.321,10.598-12.776,11.077-15.021c0.479-2.245-0.564-5.279-1.324-5.872
			C172.851,298.457,171.346,297.554,171.346,297.554z"/>
		<path fill="#EDEAFC" d="M172.364,296.429l0.215,4.833c0.047,1.026-0.47,2.005-1.365,2.512c-0.814,0.464-1.997,0.816-3.597,0.56
			c-3.513-0.564-3.825-1.566-4.077-6.398C163.289,293.105,172.364,296.429,172.364,296.429z"/>
		<g>
			<path fill="#A498EE" d="M154.276,288.264c0,0-4.664-2.352-7.527,1.15c-2.865,3.501-6.959,11.767-7.085,17.354
				c-0.127,5.585,4.42,5.207,7.124,3.888c2.702-1.324,10.598-12.776,11.077-15.022c0.479-2.245-0.564-5.279-1.323-5.872
				C155.78,289.167,154.276,288.264,154.276,288.264z"/>
			<path fill="#EDEAFC" d="M155.293,287.14l0.215,4.832c0.047,1.027-0.47,2.005-1.365,2.512c-0.814,0.464-1.997,0.816-3.597,0.562
				c-3.513-0.566-3.826-1.568-4.078-6.4C146.218,283.815,155.293,287.14,155.293,287.14z"/>
			<path fill="#6754E2" d="M196.904,198.438c-1.378-22.458-24.32,3.304-24.32,3.304l-15.702,15.39l-14.138,15.532
				c-2.761,3.033-4.045,7.129-3.511,11.195l5.718,43.551c0.284,2.151,2.125,3.738,4.292,3.722c0.613-0.005,1.315-0.061,2.119-0.187
				c5.102-0.794,4.726-5.646,4.726-5.646l-1.046-40.734l29.694-17.898C184.735,226.667,198.284,220.896,196.904,198.438z"/>
		</g>
		<path fill="#6754E2" d="M213.976,206.994c-1.38-22.458-24.322,3.305-24.322,3.305l-15.702,15.389l-14.139,15.532
			c-2.761,3.033-4.047,7.129-3.513,11.196l5.72,43.552c0.284,2.149,2.123,3.736,4.292,3.72c0.613-0.006,1.315-0.061,2.12-0.187
			c5.102-0.795,4.726-5.646,4.726-5.646l-1.046-40.733l29.694-17.899C201.806,235.223,215.355,229.452,213.976,206.994z"/>
		<path fill="#A498EE" d="M200.404,134.904c17.391,7.211,17.043,17.492,17.043,17.492s-3.407,37.692-2.244,62.863
			c0.485,10.523-55.91,11.327-47.5-16.748c9.918-33.101,6.2-59.898,10.842-63.94C183.189,130.529,195.905,133.039,200.404,134.904z"
			/>
		
			<ellipse transform="matrix(0.9684 0.2494 -0.2494 0.9684 41.6018 -44.7346)" fill="#F3C6C0" cx="197.312" cy="141.782" rx="8.971" ry="6.603"/>
		<path fill="#FFFFFF" d="M198.6,149.386c-1.02,0-2.077-0.129-3.144-0.405c-5.231-1.347-8.659-5.673-7.638-9.642
			c1.024-3.969,6.109-6.106,11.349-4.755c2.491,0.642,4.655,1.967,6.096,3.733c1.501,1.841,2.049,3.94,1.54,5.911
			C205.989,147.389,202.594,149.386,198.6,149.386z M195.982,135.835c-3.229,0-5.93,1.503-6.553,3.918
			c-0.792,3.082,2.098,6.499,6.444,7.619c4.341,1.115,8.527-0.477,9.322-3.559c0.371-1.445-0.061-3.024-1.219-4.444
			c-1.219-1.493-3.073-2.621-5.225-3.176C197.811,135.951,196.875,135.835,195.982,135.835z"/>
		<path fill="#F3C6C0" d="M193.429,134.121c0,0,0.151,0.697-0.149,6.208c-0.096,1.732,5.972,3.351,7.541,1.783
			c1.568-1.568,0.94-3.199,1.316-9.096C202.513,127.12,193.429,134.121,193.429,134.121z"/>
		<path fill="#EA9C92" d="M202.137,133.016c0,0-1.495,5.468-8.858,7.564l0.111-4.969L202.137,133.016z"/>
		<circle fill="#F3C6C0" cx="193.841" cy="122.476" r="13.387"/>
		<path fill="#EA9C92" d="M196.916,122.966c0,0-7.371,3.157-12.476,3.194c-5.104,0.037-3.979-4.239-3.979-4.239l15.151-2.189
			L196.916,122.966z"/>
		<path fill="#FF2C9C" d="M182.918,123.798c0,0,6.422-2.726,12.054-1.589c1.325,0.267,2.553,0.976,3.404,2.023
			c0.278,0.343,0.631,0.655,1.031,0.746c0.998,0.225,2.633-3.917,4.575-4.013c1.941-0.095,3.238,1.281,1.646,3.828
			c-1.592,2.549-1.055,5.402-0.32,5.811c0.732,0.409,8.5-5.541,1.647-19.118c-6.853-13.576-24.261-6.263-26.968-3.511
			c0,0-2.852,2.484-5.172,0.273C174.814,108.249,172.214,127.725,182.918,123.798z"/>
		<path fill="#F3C6C0" d="M207.69,179.933v10.185c0,1.167-0.492,2.28-1.354,3.066l-20.923,19.074l2.378,3.636l27.63-20.039
			c1.29-0.935,2.121-2.374,2.288-3.959l1.867-17.762L207.69,179.933z"/>
		<path fill="#A498EE" d="M215.975,147.303c0,0,6.348,9.545,8.712,34.672c0,0-10.844,3.507-16.997,1.516
			C201.537,181.501,215.975,147.303,215.975,147.303z"/>
		<path fill="#887AE8" d="M206.532,159.373c0,0-2.485,13.299-2.626,19.549c-0.039,1.718,1.011,3.27,2.626,3.854l0,0V159.373z"/>
	</g>
	<g>
		<path fill="#A498EE" d="M201.103,225.501l-4.624-0.609l-29.85-17.235c-0.957-0.553-2.628-0.483-3.733,0.155l-21.153,12.208
			l-2.796-0.37v2.784l0.003,0c-0.019,0.366,0.189,0.719,0.642,0.979l33.828,19.533c0.958,0.552,2.63,0.482,3.735-0.155
			l23.036-13.294c0.621-0.359,0.93-0.821,0.912-1.256l0,0V225.501z"/>
		<path fill="#887AE8" d="M178.675,214.613l-2.121-1.225h-23.316l-11.495,6.633l-2.796-0.37v2.784l0.003,0
			c-0.019,0.366,0.189,0.719,0.642,0.979l33.828,19.533c0.507,0.291,1.213,0.408,1.928,0.361L178.675,214.613z"/>
		<path fill="#A498EE" d="M140.188,219.814l-1.241-0.164v2.784l0.003,0c-0.019,0.366,0.189,0.719,0.642,0.979l0.596,0.344V219.814z"
			/>
		<path fill="#FFFFFF" d="M173.761,243.104c0.908,0.344,2.205,0.269,3.172-0.197v-4.736h-3.172V243.104z"/>
		<path fill="#FFFFFF" d="M173.42,240.164l-33.828-19.531c-0.958-0.553-0.836-1.518,0.269-2.156l23.035-13.294
			c1.105-0.638,2.776-0.708,3.733-0.155l33.829,19.531c0.957,0.553,0.838,1.518-0.267,2.156l-23.036,13.295
			C176.05,240.647,174.377,240.716,173.42,240.164z"/>
		<path fill="#EDEAFC" d="M172.849,237.203l-28.129-16.239c-0.796-0.46-0.697-1.263,0.222-1.793l12.345-6.941
			c0.918-0.531,2.309-0.588,3.105-0.129l28.129,16.241c0.794,0.459,0.695,1.262-0.223,1.792l-12.345,6.942
			C175.034,237.605,173.645,237.664,172.849,237.203z"/>
	</g>
	<path fill="#F3C6C0" d="M164.202,204.541l-0.349,2.334c-0.299,1.989-0.247,4.014,0.153,5.985l0.417,2.057
		c0.235,1.16,1.152,2.061,2.317,2.272l0,0c0.909,0.167,1.768-0.473,1.871-1.392l0.56-4.989c0,0,1.276,1.672,1.893,1.672
		c0.616,0-0.69-4.998-2.084-7.826C167.584,201.826,164.202,204.541,164.202,204.541z"/>
	<path fill="#F3C6C0" d="M175.67,167.444l-3.631,7.184c-0.858,1.699-1.363,3.553-1.484,5.453l-1.577,24.574l-4.776-0.113
		l-2.166-27.597c-0.067-0.852-0.025-1.708,0.123-2.55l2.475-13.995L175.67,167.444z"/>
	<g>
		<path fill="#6754E2" d="M172.275,242.04l-2.836-3.703l-29.83-17.271c-0.956-0.553-1.73-2.037-1.728-3.313l0.025-24.421
			l-1.714-2.24l1.612-0.933l0.001,0.001c0.309-0.198,0.719-0.193,1.169,0.067l33.807,19.573c0.956,0.554,1.729,2.037,1.728,3.313
			l-0.028,26.597c-0.002,0.718-0.247,1.217-0.633,1.418l0,0L172.275,242.04z"/>
		<path fill="#887AE8" d="M151.647,228.036l-2.119-1.227l-11.635-20.207l0.012-13.27l-1.714-2.24l1.612-0.933l0.001,0.001
			c0.309-0.198,0.719-0.193,1.169,0.067l33.807,19.573c0.505,0.293,0.957,0.846,1.274,1.489L151.647,228.036z"/>
		<path fill="#A498EE" d="M136.952,192.086l-0.761-0.994l1.612-0.933l0.001,0.001c0.309-0.198,0.719-0.193,1.169,0.067l0.596,0.346
			L136.952,192.086z"/>
		<path fill="#7563E5" d="M173.087,210.018c0.751,0.615,1.332,1.776,1.411,2.848l-3.303,1.908l-1.582-2.75L173.087,210.018z"/>
		<path fill="#A498EE" d="M171.17,210.733l-33.805-19.572c-0.957-0.553-1.733,0.032-1.735,1.308l-0.028,26.597
			c-0.002,1.275,0.772,2.759,1.728,3.313l33.807,19.573c0.956,0.553,1.733-0.032,1.733-1.308l0.029-26.597
			C172.899,212.771,172.125,211.288,171.17,210.733z"/>
	</g>
	<path fill="#F3C6C0" d="M187.792,215.894l-0.542,1.123c-0.623,1.292-1.604,2.379-2.826,3.132l-3.357,2.07
		c-1.044,0.644-2.368,0.697-3.427,0.079c-0.039-0.021-0.077-0.045-0.114-0.069c-1.068-0.668-1.164-2.201-0.286-3.104l3.508-3.607
		c0,0-1.972,1.51-2.524,0.902c-0.405-0.446,1.913-2.622,3.691-2.692c1.778-0.072,3.5-1.47,3.5-1.47L187.792,215.894z"/>
	<path fill="#A498EE" d="M178.895,134.519c0,0-12.863,13.997-18.053,26.837c0,0,4.398,7.925,15.166,11.034
		C186.774,175.5,178.895,134.519,178.895,134.519z"/>
	<path fill="#887AE8" d="M173.584,171.56l2.086-20.141l-4.914,18.871C171.633,170.745,172.581,171.17,173.584,171.56z"/>
	<path fill="#FFFFFF" d="M188.529,131.694l-3.456-0.95c0,0,1.649,2.596,4.059,3.257c2.408,0.663,2.785-1.377,2.785-1.377
		L188.529,131.694z"/>
</g>
<g>
	<path fill="#EDEAFC" d="M158.197,487.642c-23.252-13.425-60.948-13.425-84.198,0c-23.25,13.423-23.25,35.187,0.001,48.609
		c23.251,13.425,60.946,13.425,84.197,0.002S181.447,501.065,158.197,487.642z M135.45,523.119c-10.687,6.17-28.016,6.17-38.704,0
		c-10.687-6.17-10.688-16.176,0-22.346c10.688-6.17,28.015-6.17,38.702,0C146.138,506.943,146.138,516.949,135.45,523.119z"/>
	<g>
		<g>
			<path fill="#6754E2" d="M65.217,479.688l21.237,0.331c1.572-2.045,3.803-3.963,6.708-5.641
				c11.679-6.741,30.042-7.264,42.765-1.572l12.62-11.869l19.432,0.304c-0.959-0.628-1.945-1.248-2.986-1.849
				c-27.004-15.591-70.788-15.591-97.791,0c-4.966,2.866-9.011,6.063-12.151,9.465L65.217,479.688z"/>
			<polygon fill="#A498EE" points="167.979,430.399 167.979,461.24 148.547,460.937 148.547,430.097 			"/>
			<polygon fill="#6754E2" points="135.927,441.965 135.927,472.806 148.547,460.937 148.547,430.097 			"/>
			<path fill="#6754E2" d="M86.455,449.178v30.841l27.937-22.767l21.536,15.554v-30.841l-19.83-9.619c0,0-27.298,8.356-28.718,8.711
				C85.962,441.412,86.455,449.178,86.455,449.178z"/>
			<polygon fill="#6754E2" points="65.217,448.847 65.217,479.688 86.455,480.019 86.455,449.178 			"/>
			<polygon fill="#A498EE" points="55.051,438.017 55.051,468.856 65.217,479.688 65.217,448.847 			"/>
			<path fill="#EDEAFC" d="M65.217,448.847l21.237,0.331c1.572-2.046,3.803-3.963,6.708-5.64
				c11.679-6.744,30.042-7.263,42.765-1.573l12.62-11.868l19.432,0.303c-0.959-0.628-1.945-1.248-2.986-1.849
				c-27.004-15.592-70.788-15.592-97.791,0c-4.966,2.866-9.011,6.063-12.151,9.466L65.217,448.847z"/>
		</g>
		<g>
			<path fill="#A498EE" d="M142.326,445.759v28.351l18.383-4.403c0,0-1.08-16.591-1.471-17.034
				C158.847,452.229,142.326,445.759,142.326,445.759z"/>
			<g>
				<path fill="#6754E2" d="M128.412,474.109v30.841l1.987,2.116l12.961-7.472c0,0-2.01-23.544-2.247-24.017
					C140.876,475.104,128.412,474.109,128.412,474.109z"/>
				<path fill="#887AE8" d="M153.439,466.147L142.326,476.6c9.258,7.325,8.163,17.651-3.29,24.265
					c-3.139,1.811-6.759,3.172-10.624,4.086l11.488,12.237l-10.178,9.574c12.924-1.493,25.254-5.126,35.273-10.911
					c23.213-13.402,26.451-33.96,9.751-49.371L153.439,466.147z"/>
				<polygon fill="#887AE8" points="129.722,495.92 129.722,526.762 154.924,517.029 185.234,488.109 185.122,455.361 
					153.053,480.779 				"/>
				<path fill="#EDEAFC" d="M153.439,435.307l-11.114,10.452c9.258,7.325,8.163,17.651-3.29,24.265
					c-3.139,1.812-6.759,3.172-10.624,4.086l11.488,12.238l-10.178,9.572c12.924-1.491,25.254-5.125,35.273-10.908
					c23.213-13.403,26.451-33.96,9.751-49.373L153.439,435.307z"/>
			</g>
		</g>
		<g>
			<path fill="#887AE8" d="M129.64,517.028l-10.125-10.787c-9.399,0.571-19.149-1.219-26.352-5.379
				c-7.441-4.296-10.506-10.158-9.205-15.749l-24.111-0.376l-9.271-9.876c-8.109,13.917-2.577,29.902,16.628,40.989
				c14.112,8.146,32.804,12.027,51.291,11.661L129.64,517.028z"/>
			<polygon fill="#887AE8" points="118.494,496.669 118.494,527.512 46.967,487.873 46.967,457.019 57.41,461.24 			"/>
			<polygon fill="#6754E2" points="129.64,486.187 129.64,517.028 118.494,527.512 118.494,496.669 			"/>
			<path fill="#A498EE" d="M129.64,486.187L119.515,475.4c-9.399,0.572-19.149-1.219-26.352-5.379
				c-7.441-4.296-10.506-10.158-9.205-15.749l-24.111-0.376l-9.271-9.876c-8.109,13.917-2.577,29.9,16.628,40.989
				c14.112,8.146,32.804,12.029,51.291,11.659L129.64,486.187z"/>
		</g>
	</g>
</g>
<g>
	<path fill="#5793CE" d="M171.418,68.561l1.84-3.12c0,0,1.535,0.846,3.184,0.329c1.317-0.417,2.457-1.605,3.389-3.537
		c3.285-6.81,9.352-7.326,12.101-6.647l-0.868,3.517l0.433-1.758l-0.42,1.761c-0.525-0.121-5.228-1.013-7.985,4.7
		c-1.399,2.9-3.295,4.73-5.636,5.441C174.327,70.193,171.709,68.73,171.418,68.561z"/>
</g>
<path fill="#D4ECFF" d="M113.841,187.359c-9.153,0-16.598-7.444-16.598-16.597s7.445-16.597,16.598-16.597
	c9.152,0,16.597,7.445,16.597,16.597S122.993,187.359,113.841,187.359z M113.841,157.786c-7.156,0-12.977,5.821-12.977,12.977
	c0,7.155,5.821,12.976,12.977,12.976c7.155,0,12.976-5.821,12.976-12.976C126.817,163.606,120.996,157.786,113.841,157.786z"/>
<path fill="#5793CE" d="M16.453,416.652c-6.49,0-11.77-5.28-11.77-11.769c0-6.489,5.28-11.77,11.77-11.77
	c6.488,0,11.768,5.28,11.768,11.77C28.22,411.372,22.94,416.652,16.453,416.652z M16.453,396.735c-4.492,0-8.148,3.656-8.148,8.148
	s3.656,8.147,8.148,8.147s8.148-3.655,8.148-8.147S20.945,396.735,16.453,396.735z"/>
<path fill="#5793CE" d="M89.536,284.463l-7.987-16.248l16.247-7.989l7.989,16.249L89.536,284.463z M86.395,269.866l4.792,9.75
	l9.751-4.794l-4.795-9.75L86.395,269.866z"/>
<rect x="483.776" y="107.849" transform="matrix(0.8974 -0.4412 0.4412 0.8974 0.6441 226.7932)" fill="#5793CE" width="8.324" height="8.325"/>
<g>
	
		<rect x="338.106" y="9.814" transform="matrix(0.7072 0.707 -0.707 0.7072 112.5562 -234.9412)" fill="#D4ECFF" width="3.619" height="17.202"/>
	
		<rect x="331.314" y="16.605" transform="matrix(0.7071 0.7071 -0.7071 0.7071 112.5753 -234.9584)" fill="#D4ECFF" width="17.202" height="3.619"/>
</g>
<circle fill="#D4ECFF" cx="460.853" cy="24.499" r="8.542"/>
<circle fill="#D4ECFF" cx="234.504" cy="503.032" r="4.964"/>
<circle fill="#D4ECFF" cx="430.296" cy="502.444" r="10.18"/>
<g>
	<g>
		<path fill="#D3008D" d="M75.022,308.771l-36.352-20.988c-0.72-0.415-1.37-0.43-1.879-0.151c0-0.001,0.002-0.021,0.002-0.021
			l-3.526,2.037c0,0,1.561,0.569,2.478,0.905v26.471c0,2.155,1.309,4.657,2.924,5.589l34.745,20.062v3.105l3.563-2.051l-0.02-0.007
			c0.602-0.367,0.988-1.174,0.988-2.332V314.36C77.947,312.206,76.638,309.704,75.022,308.771z"/>
		<path fill="#FF2C9C" d="M71.432,345.67L35.08,324.684c-1.615-0.934-2.924-3.435-2.924-5.589v-27.029
			c0-2.154,1.31-3.144,2.924-2.212l36.352,20.987c1.615,0.934,2.925,3.436,2.925,5.589v27.03
			C74.357,345.613,73.047,346.604,71.432,345.67z"/>
	</g>
	<g>
		<path fill="#FFFFFF" d="M47.305,315.368c0,1.565-1.098,2.198-2.454,1.416c-1.354-0.781-2.452-2.684-2.452-4.247
			c0-1.565,1.098-2.198,2.452-1.418C46.207,311.902,47.305,313.805,47.305,315.368z"/>
		<path fill="#FFFFFF" d="M54.735,319.659c0,1.563-1.098,2.198-2.453,1.415c-1.354-0.782-2.453-2.684-2.453-4.248
			c0-1.563,1.099-2.198,2.453-1.416C53.637,316.192,54.735,318.094,54.735,319.659z"/>
		<path fill="#FFFFFF" d="M62.166,323.948c0,1.563-1.098,2.198-2.453,1.415c-1.355-0.78-2.453-2.684-2.453-4.247
			c0-1.565,1.098-2.198,2.453-1.415C61.067,320.481,62.166,322.385,62.166,323.948z"/>
	</g>
</g>
<g>
	<g>
		<path fill="#5793CE" d="M423.643,60.449l-36.351-20.987c-0.721-0.415-1.37-0.432-1.879-0.151c0-0.002,0.002-0.023,0.002-0.023
			l-3.525,2.037c0,0,1.561,0.569,2.478,0.906v26.472c0,2.154,1.31,4.657,2.925,5.589l34.745,20.06v3.106l3.563-2.052l-0.021-0.007
			c0.604-0.367,0.989-1.172,0.989-2.331v-27.03C426.568,63.884,425.259,61.382,423.643,60.449z"/>
		<path fill="#D4ECFF" d="M420.053,97.348L383.701,76.36c-1.615-0.932-2.925-3.435-2.925-5.588v-27.03
			c0-2.154,1.31-3.144,2.925-2.211l36.352,20.987c1.615,0.932,2.926,3.435,2.926,5.589v27.029
			C422.979,97.291,421.668,98.28,420.053,97.348z"/>
	</g>
	<g>
		<path fill="#FFFFFF" d="M395.926,67.046c0,1.563-1.099,2.198-2.452,1.416c-1.355-0.783-2.453-2.684-2.453-4.249
			c0-1.563,1.098-2.197,2.453-1.416C394.827,63.58,395.926,65.481,395.926,67.046z"/>
		<path fill="#FFFFFF" d="M403.356,71.336c0,1.564-1.098,2.197-2.453,1.416s-2.452-2.684-2.452-4.248
			c0-1.564,1.097-2.198,2.452-1.417S403.356,69.771,403.356,71.336z"/>
		<path fill="#FFFFFF" d="M410.786,75.626c0,1.563-1.099,2.198-2.452,1.416c-1.355-0.783-2.453-2.684-2.453-4.249
			c0-1.563,1.098-2.198,2.453-1.416C409.688,72.16,410.786,74.062,410.786,75.626z"/>
	</g>
</g>
<g>
	<polygon fill="#D4ECFF" points="420.431,514.957 441.773,502.636 463.114,514.957 441.773,527.278 	"/>
	<polygon fill="#D4ECFF" points="465.732,488.452 487.073,476.131 508.414,488.452 487.073,500.773 	"/>
	<polygon fill="#D4ECFF" points="510.896,462.58 532.237,450.259 553.578,462.58 532.237,474.901 	"/>
	<g>
		<g>
			<g>
				<polygon fill="#C13D1A" points="487.073,488.452 487.073,422.738 465.732,410.417 465.732,476.131 				"/>
				<polygon fill="#D3008D" points="487.073,422.738 508.414,410.417 508.414,476.131 487.073,488.452 				"/>
				<polygon fill="#FF2C9C" points="487.073,488.452 487.073,422.738 465.732,410.417 465.732,476.131 				"/>
			</g>
			<g>
				<polygon fill="#FF2C9C" points="441.773,514.957 441.773,477.993 420.431,465.672 420.431,502.636 				"/>
				<polygon fill="#D3008D" points="441.773,477.993 463.114,465.672 463.114,502.636 441.773,514.957 				"/>
				<polygon fill="#FF2C9C" points="420.431,465.672 441.773,453.35 463.114,465.672 441.773,477.993 				"/>
			</g>
			<g>
				<polygon fill="#FF2C9C" points="532.237,462.58 532.237,372.224 510.896,359.9 510.896,450.259 				"/>
				<polygon fill="#D3008D" points="532.237,372.224 553.578,359.9 553.578,450.259 532.237,462.58 				"/>
				<polygon fill="#FF2C9C" points="510.896,359.9 532.237,347.581 553.578,359.9 532.237,372.224 				"/>
			</g>
		</g>
		<polygon fill="#FF2C9C" points="465.732,410.417 487.073,398.096 508.414,410.417 487.073,422.738 		"/>
	</g>
</g>
</svg>
