<?xml version="1.0" encoding="utf-8"?>
<!-- Generator: Adobe Illustrator 16.0.0, SVG Export Plug-In . SVG Version: 6.00 Build 0)  -->
<!DOCTYPE svg PUBLIC "-//W3C//DTD SVG 1.1//EN" "http://www.w3.org/Graphics/SVG/1.1/DTD/svg11.dtd">
<svg version="1.1" id="Layer_1" xmlns="http://www.w3.org/2000/svg" xmlns:xlink="http://www.w3.org/1999/xlink" x="0px" y="0px"
	 width="160.867px" height="44.525px" viewBox="0 0 160.867 44.525" enable-background="new 0 0 160.867 44.525"
	 xml:space="preserve">
<g>
	<path d="M60.699,22.341c0.154,0.343,0.302,0.693,0.443,1.051c0.142-0.366,0.292-0.724,0.45-1.069
		c0.158-0.346,0.321-0.682,0.487-1.007l4.675-9.209c0.083-0.159,0.168-0.282,0.256-0.369c0.087-0.087,0.185-0.152,0.293-0.194
		c0.108-0.042,0.231-0.063,0.369-0.063c0.138,0,0.298,0,0.481,0h3.225v18.2h-3.725V19.204c0-0.508,0.025-1.058,0.075-1.649
		l-4.825,9.361c-0.15,0.292-0.352,0.514-0.606,0.663s-0.543,0.226-0.869,0.226h-0.575c-0.325,0-0.615-0.075-0.869-0.226
		c-0.254-0.149-0.456-0.371-0.606-0.663l-4.85-9.375c0.033,0.292,0.058,0.582,0.075,0.869s0.025,0.552,0.025,0.793v10.475h-3.725
		V11.478h3.225c0.183,0,0.344,0,0.481,0c0.138,0,0.261,0.021,0.369,0.063s0.206,0.106,0.293,0.194s0.173,0.21,0.256,0.369
		l4.688,9.247C60.385,21.67,60.545,21.999,60.699,22.341z"/>
	<path d="M92.355,20.567c0,1.315-0.227,2.541-0.682,3.675c-0.453,1.134-1.094,2.119-1.918,2.956
		c-0.825,0.838-1.818,1.494-2.981,1.969c-1.162,0.477-2.452,0.713-3.868,0.713s-2.709-0.236-3.875-0.713
		c-1.167-0.475-2.165-1.131-2.994-1.969c-0.829-0.837-1.471-1.822-1.925-2.956c-0.454-1.134-0.682-2.358-0.682-3.675
		c0-1.317,0.228-2.542,0.682-3.675c0.454-1.134,1.096-2.117,1.925-2.95s1.827-1.488,2.994-1.963
		c1.166-0.476,2.458-0.712,3.875-0.712s2.706,0.239,3.868,0.719c1.163,0.479,2.156,1.136,2.981,1.969
		c0.824,0.833,1.465,1.817,1.918,2.95C92.128,18.038,92.355,19.259,92.355,20.567z M88.031,20.567c0-0.9-0.117-1.71-0.351-2.433
		c-0.233-0.721-0.568-1.33-1.007-1.83c-0.438-0.5-0.973-0.884-1.605-1.15c-0.632-0.267-1.354-0.4-2.162-0.4
		c-0.816,0-1.544,0.134-2.182,0.4c-0.638,0.267-1.175,0.65-1.612,1.15s-0.773,1.109-1.007,1.83c-0.232,0.722-0.35,1.531-0.35,2.433
		c0,0.908,0.117,1.723,0.35,2.442c0.233,0.722,0.569,1.332,1.007,1.832s0.975,0.882,1.612,1.144
		c0.638,0.263,1.363,0.395,2.182,0.395c0.809,0,1.529-0.132,2.162-0.395c0.633-0.262,1.169-0.644,1.605-1.144
		c0.438-0.5,0.772-1.11,1.007-1.832C87.914,22.289,88.031,21.475,88.031,20.567z"/>
	<path d="M94.38,29.679V11.467h6.699c1.258,0,2.33,0.117,3.213,0.351c0.883,0.232,1.604,0.563,2.162,0.987
		c0.559,0.424,0.965,0.941,1.219,1.55c0.255,0.607,0.382,1.288,0.382,2.038c0,0.408-0.058,0.802-0.175,1.181
		c-0.116,0.379-0.301,0.736-0.551,1.069s-0.57,0.636-0.963,0.905c-0.391,0.271-0.861,0.507-1.412,0.707
		c1.2,0.292,2.088,0.766,2.662,1.418c0.576,0.654,0.863,1.494,0.863,2.52c0,0.774-0.15,1.496-0.45,2.162
		c-0.3,0.667-0.739,1.248-1.319,1.744c-0.578,0.495-1.293,0.883-2.143,1.161c-0.852,0.279-1.82,0.42-2.913,0.42H94.38z
		 M98.605,19.13h2.199c0.467,0,0.889-0.032,1.264-0.1s0.693-0.183,0.955-0.35c0.264-0.167,0.463-0.396,0.602-0.688
		c0.138-0.292,0.205-0.658,0.205-1.1c0-0.434-0.055-0.793-0.162-1.081s-0.274-0.52-0.5-0.694c-0.225-0.175-0.51-0.3-0.855-0.375
		s-0.757-0.112-1.23-0.112h-2.476L98.605,19.13L98.605,19.13z M98.605,21.954v4.538h2.975c0.56,0,1.016-0.07,1.369-0.213
		c0.354-0.142,0.631-0.325,0.831-0.55c0.2-0.226,0.337-0.479,0.413-0.763c0.074-0.282,0.111-0.57,0.111-0.862
		c0-0.333-0.043-0.633-0.131-0.9c-0.088-0.266-0.237-0.491-0.449-0.674c-0.213-0.183-0.494-0.325-0.844-0.425
		c-0.352-0.101-0.793-0.15-1.326-0.15L98.605,21.954L98.605,21.954z"/>
	<path d="M115.405,29.679h-4.25V11.467h4.25V29.679z"/>
	<path d="M136.755,20.567c0,1.315-0.228,2.541-0.682,3.675c-0.453,1.134-1.094,2.119-1.919,2.956
		c-0.825,0.838-1.817,1.494-2.981,1.969c-1.161,0.477-2.451,0.713-3.867,0.713c-1.417,0-2.709-0.236-3.875-0.713
		c-1.167-0.475-2.165-1.131-2.994-1.969c-0.829-0.837-1.471-1.822-1.925-2.956s-0.683-2.358-0.683-3.675
		c0-1.317,0.229-2.542,0.683-3.675c0.454-1.134,1.096-2.117,1.925-2.95s1.827-1.488,2.994-1.963
		c1.166-0.476,2.458-0.712,3.875-0.712c1.416,0,2.706,0.239,3.867,0.719c1.164,0.479,2.156,1.136,2.981,1.969
		s1.466,1.817,1.919,2.95C136.528,18.038,136.755,19.259,136.755,20.567z M132.43,20.567c0-0.9-0.117-1.71-0.351-2.433
		c-0.233-0.721-0.568-1.33-1.006-1.83c-0.439-0.5-0.975-0.884-1.607-1.15s-1.354-0.4-2.161-0.4c-0.817,0-1.544,0.134-2.183,0.4
		c-0.638,0.267-1.174,0.65-1.611,1.15s-0.773,1.109-1.008,1.83c-0.232,0.722-0.35,1.531-0.35,2.433c0,0.908,0.116,1.723,0.35,2.442
		c0.234,0.721,0.57,1.332,1.008,1.832s0.975,0.882,1.611,1.144c0.639,0.263,1.364,0.395,2.183,0.395
		c0.808,0,1.528-0.132,2.161-0.395c0.634-0.262,1.17-0.644,1.607-1.144c0.436-0.5,0.771-1.11,1.006-1.832
		C132.313,22.289,132.43,21.475,132.43,20.567z"/>
	<path d="M148.574,22.341c0.153,0.343,0.301,0.693,0.442,1.051c0.142-0.366,0.292-0.724,0.45-1.069s0.32-0.682,0.486-1.007
		l4.676-9.209c0.084-0.159,0.168-0.282,0.256-0.369s0.187-0.152,0.295-0.194c0.107-0.042,0.23-0.063,0.367-0.063
		c0.139,0,0.299,0,0.481,0h3.226v18.2h-3.726V19.204c0-0.508,0.025-1.058,0.075-1.649l-4.825,9.361
		c-0.149,0.292-0.353,0.514-0.606,0.663s-0.543,0.226-0.867,0.226h-0.575c-0.325,0-0.615-0.075-0.869-0.226
		c-0.254-0.149-0.456-0.371-0.606-0.663l-4.85-9.375c0.033,0.292,0.059,0.582,0.075,0.869s0.024,0.552,0.024,0.793v10.475h-3.726
		V11.478h3.226c0.184,0,0.344,0,0.48,0s0.262,0.021,0.369,0.063s0.206,0.106,0.294,0.194c0.087,0.087,0.173,0.21,0.256,0.369
		l4.688,9.247C148.259,21.67,148.419,21.999,148.574,22.341z"/>
</g>
<g>
	<path fill="#373FD1" d="M23.622,24.319c-0.051-0.604-0.108-1.207-0.176-1.811c-0.032-0.281-0.065-0.563-0.101-0.844
		c-0.016-0.107-0.031-0.218-0.047-0.328c-0.152-1.021-0.332-2.043-0.568-3.05c-0.068-0.29-0.142-0.579-0.22-0.867
		c-0.01,0.032-0.021,0.063-0.032,0.095c-0.46,1.435-0.822,2.902-1.137,4.378c-0.717,3.354-1.146,6.758-1.82,10.12
		c-0.341,1.701-0.69,3.451-1.335,5.071c-0.582,1.461-1.304,2.895-2.917,3.413c-3.079,0.992-4.526-2.721-5.225-4.935
		c-0.821-2.597-1.38-5.271-2.029-7.914c-0.123-0.503-0.249-1.006-0.379-1.508c-0.724,3.49-1.098,7.092-2.452,10.395
		c-0.01,0.024-0.021,0.051-0.031,0.075l11.876,6.882c1.233,0.714,2.912,1.021,4.531,0.923c0.05-0.1,0.1-0.194,0.146-0.296
		c0.042-0.088,0.081-0.176,0.122-0.263c0.173-0.438,0.334-0.881,0.475-1.331c0.336-1.071,0.914-2.166,1.121-3.271
		c0.112-0.596,0.608-1.191,0.608-1.792c0-0.002,0-0.003,0-0.007c0-0.13-0.278-0.26-0.263-0.391c0.037-0.314-0.084-0.63-0.053-0.945
		c0.127-1.291,0.134-2.589,0.176-3.887C23.976,29.594,23.841,26.95,23.622,24.319z"/>
	<path fill="#373FD1" d="M28.953,32.396c-0.113,3.052-0.348,6.293-1.07,9.372l9.295-5.435c2.166-1.258,3.853-4.333,3.853-6.838
		v-0.742l-15.267-16.56c1.001,1.314,1.517,3.137,1.882,4.726C28.807,21.945,29.144,27.257,28.953,32.396z"/>
	<path fill="#5E61E7" d="M37.178,8.318L24.865,1.159c-2.167-1.255-5.691-1.255-7.858,0L4.81,8.318
		c-2.167,1.256-3.779,4.332-3.779,6.835v14.344c0,0.778,0.022,1.612,0.323,2.429c0.518-2.136,0.796-4.307,1.239-6.461
		c0.335-1.632,0.638-3.314,1.284-4.856c0.552-1.318,1.309-2.949,2.888-3.257c1.693-0.33,3.054,0.499,3.904,1.935l4.954,5.267
		c0.436-2.584,0.92-5.16,1.668-7.671c0.542-1.817,1.227-4.31,2.793-5.559c2.036-1.624,4.157-1.13,5.681,0.872l15.266,16.561V15.153
		C41.031,12.65,39.344,9.574,37.178,8.318z"/>
	<path fill="#373FD1" d="M12.977,26.283c0.451,1.84,0.859,3.698,1.344,5.534c0.317-1.438,0.573-2.893,0.813-4.34
		c0.162-0.975,0.32-1.949,0.485-2.926l-4.958-5.267C11.893,21.368,12.407,23.958,12.977,26.283z"/>
</g>
</svg>
