<?xml version="1.0" encoding="utf-8"?>
<!-- Generator: Adobe Illustrator 16.0.0, SVG Export Plug-In . SVG Version: 6.00 Build 0)  -->
<!DOCTYPE svg PUBLIC "-//W3C//DTD SVG 1.1//EN" "http://www.w3.org/Graphics/SVG/1.1/DTD/svg11.dtd">
<svg version="1.1" id="Layer_1" xmlns="http://www.w3.org/2000/svg" xmlns:xlink="http://www.w3.org/1999/xlink" x="0px" y="0px"
	 width="160.866px" height="44.525px" viewBox="0 0 160.866 44.525" enable-background="new 0 0 160.866 44.525"
	 xml:space="preserve">
<g>
	<path fill="#FFFFFF" d="M60.699,22.341c0.154,0.342,0.302,0.693,0.443,1.05c0.142-0.366,0.292-0.723,0.45-1.069
		s0.321-0.682,0.487-1.007l4.675-9.209c0.083-0.159,0.168-0.282,0.256-0.369c0.087-0.087,0.185-0.152,0.293-0.194
		c0.108-0.042,0.231-0.063,0.369-0.063c0.138,0,0.298,0,0.481,0h3.225v18.2h-3.725V19.204c0-0.508,0.025-1.058,0.075-1.65
		l-4.825,9.362c-0.15,0.292-0.352,0.513-0.606,0.663c-0.254,0.149-0.543,0.225-0.869,0.225h-0.575c-0.325,0-0.615-0.075-0.869-0.225
		c-0.254-0.15-0.456-0.371-0.606-0.663l-4.85-9.375c0.033,0.292,0.058,0.582,0.075,0.869c0.017,0.287,0.025,0.552,0.025,0.793
		v10.475h-3.725v-18.2h3.225c0.183,0,0.344,0,0.481,0c0.138,0,0.261,0.021,0.369,0.063c0.108,0.042,0.206,0.106,0.293,0.194
		s0.173,0.21,0.256,0.369l4.688,9.247C60.385,21.67,60.545,21.999,60.699,22.341z"/>
	<path fill="#FFFFFF" d="M92.355,20.567c0,1.316-0.227,2.541-0.681,3.675s-1.094,2.119-1.919,2.956
		c-0.825,0.838-1.818,1.494-2.981,1.969c-1.162,0.476-2.452,0.713-3.868,0.713c-1.417,0-2.709-0.237-3.875-0.713
		c-1.167-0.475-2.165-1.131-2.994-1.969c-0.829-0.837-1.471-1.822-1.925-2.956s-0.682-2.358-0.682-3.675
		c0-1.317,0.228-2.542,0.682-3.675s1.096-2.117,1.925-2.95c0.829-0.833,1.827-1.488,2.994-1.963
		c1.166-0.475,2.458-0.712,3.875-0.712c1.416,0,2.706,0.24,3.868,0.719c1.163,0.479,2.156,1.136,2.981,1.969
		c0.825,0.833,1.465,1.817,1.919,2.95S92.355,19.259,92.355,20.567z M88.031,20.567c0-0.9-0.117-1.71-0.351-2.432
		c-0.233-0.721-0.568-1.331-1.006-1.831s-0.974-0.883-1.606-1.15s-1.354-0.4-2.162-0.4c-0.817,0-1.544,0.133-2.182,0.4
		s-1.175,0.65-1.612,1.15s-0.773,1.11-1.007,1.831c-0.232,0.721-0.35,1.531-0.35,2.432c0,0.908,0.117,1.723,0.35,2.443
		c0.233,0.721,0.569,1.332,1.007,1.832s0.975,0.881,1.612,1.143c0.638,0.263,1.364,0.395,2.182,0.395
		c0.808,0,1.529-0.132,2.162-0.395c0.633-0.262,1.169-0.643,1.606-1.143s0.772-1.111,1.006-1.832S88.031,21.475,88.031,20.567z"/>
	<path fill="#FFFFFF" d="M94.381,29.679V11.467h6.699c1.258,0,2.33,0.117,3.213,0.35s1.604,0.563,2.162,0.987
		s0.965,0.942,1.219,1.55c0.254,0.608,0.381,1.288,0.381,2.038c0,0.409-0.058,0.802-0.174,1.181
		c-0.117,0.379-0.301,0.736-0.551,1.069c-0.25,0.333-0.57,0.636-0.963,0.906c-0.391,0.271-0.861,0.506-1.412,0.707
		c1.2,0.292,2.088,0.765,2.662,1.418c0.576,0.654,0.863,1.494,0.863,2.519c0,0.775-0.15,1.496-0.45,2.162
		c-0.3,0.667-0.739,1.248-1.319,1.744c-0.578,0.496-1.293,0.883-2.143,1.162c-0.851,0.279-1.821,0.419-2.913,0.419H94.381z
		 M98.605,19.13h2.199c0.467,0,0.889-0.033,1.264-0.1s0.693-0.183,0.955-0.35c0.264-0.167,0.463-0.396,0.601-0.688
		c0.138-0.292,0.206-0.658,0.206-1.1c0-0.433-0.055-0.793-0.162-1.081c-0.108-0.288-0.275-0.519-0.5-0.694s-0.511-0.3-0.856-0.375
		s-0.757-0.112-1.231-0.112h-2.475V19.13z M98.605,21.954v4.538h2.975c0.559,0,1.015-0.07,1.369-0.213
		c0.354-0.142,0.631-0.325,0.831-0.55s0.337-0.479,0.413-0.762c0.074-0.283,0.111-0.571,0.111-0.863c0-0.333-0.043-0.633-0.131-0.9
		c-0.088-0.266-0.237-0.491-0.449-0.674c-0.213-0.183-0.494-0.325-0.844-0.425c-0.351-0.1-0.793-0.15-1.326-0.15H98.605z"/>
	<path fill="#FFFFFF" d="M115.405,29.679h-4.25V11.467h4.25V29.679z"/>
	<path fill="#FFFFFF" d="M136.755,20.567c0,1.316-0.227,2.541-0.681,3.675s-1.094,2.119-1.919,2.956
		c-0.825,0.838-1.818,1.494-2.981,1.969c-1.162,0.476-2.452,0.713-3.868,0.713c-1.417,0-2.709-0.237-3.875-0.713
		c-1.167-0.475-2.165-1.131-2.994-1.969c-0.829-0.837-1.471-1.822-1.925-2.956s-0.682-2.358-0.682-3.675
		c0-1.317,0.228-2.542,0.682-3.675s1.096-2.117,1.925-2.95c0.829-0.833,1.827-1.488,2.994-1.963
		c1.166-0.475,2.458-0.712,3.875-0.712c1.416,0,2.706,0.24,3.868,0.719c1.163,0.479,2.156,1.136,2.981,1.969
		c0.825,0.833,1.465,1.817,1.919,2.95S136.755,19.259,136.755,20.567z M132.43,20.567c0-0.9-0.117-1.71-0.351-2.432
		c-0.233-0.721-0.568-1.331-1.006-1.831s-0.974-0.883-1.606-1.15c-0.634-0.267-1.354-0.4-2.162-0.4c-0.817,0-1.544,0.133-2.182,0.4
		s-1.175,0.65-1.612,1.15s-0.773,1.11-1.007,1.831c-0.233,0.721-0.35,1.531-0.35,2.432c0,0.908,0.116,1.723,0.35,2.443
		s0.569,1.332,1.007,1.832s0.975,0.881,1.612,1.143c0.638,0.263,1.364,0.395,2.182,0.395c0.808,0,1.528-0.132,2.162-0.395
		c0.633-0.262,1.169-0.643,1.606-1.143s0.772-1.111,1.006-1.832S132.43,21.475,132.43,20.567z"/>
	<path fill="#FFFFFF" d="M148.573,22.341c0.154,0.342,0.302,0.693,0.443,1.05c0.142-0.366,0.292-0.723,0.45-1.069
		s0.32-0.682,0.487-1.007l4.675-9.209c0.084-0.159,0.169-0.282,0.257-0.369c0.087-0.087,0.186-0.152,0.294-0.194
		c0.107-0.042,0.23-0.063,0.368-0.063s0.298,0,0.481,0h3.225v18.2h-3.725V19.204c0-0.508,0.025-1.058,0.075-1.65l-4.825,9.362
		c-0.15,0.292-0.353,0.513-0.606,0.663c-0.254,0.149-0.544,0.225-0.868,0.225h-0.575c-0.325,0-0.615-0.075-0.869-0.225
		c-0.254-0.15-0.456-0.371-0.606-0.663l-4.85-9.375c0.033,0.292,0.059,0.582,0.075,0.869c0.017,0.287,0.024,0.552,0.024,0.793
		v10.475h-3.725v-18.2h3.225c0.184,0,0.344,0,0.481,0s0.261,0.021,0.369,0.063c0.108,0.042,0.206,0.106,0.294,0.194
		c0.087,0.087,0.173,0.21,0.256,0.369l4.688,9.247C148.259,21.67,148.419,21.999,148.573,22.341z"/>
</g>
<g>
	<path fill="#FFFFFF" d="M23.622,24.319c-0.051-0.604-0.108-1.207-0.176-1.81c-0.032-0.282-0.065-0.563-0.101-0.844
		c-0.016-0.108-0.031-0.218-0.047-0.328c-0.152-1.022-0.332-2.043-0.568-3.05c-0.068-0.29-0.142-0.579-0.22-0.867
		c-0.01,0.032-0.021,0.062-0.032,0.094c-0.46,1.435-0.822,2.903-1.137,4.378c-0.717,3.354-1.146,6.758-1.82,10.12
		c-0.341,1.702-0.69,3.452-1.335,5.072c-0.582,1.461-1.304,2.894-2.917,3.413c-3.079,0.992-4.526-2.721-5.225-4.935
		c-0.821-2.596-1.38-5.271-2.029-7.914c-0.123-0.503-0.249-1.006-0.379-1.508c-0.724,3.491-1.098,7.092-2.452,10.395
		c-0.01,0.024-0.021,0.051-0.031,0.075l11.876,6.882c1.233,0.714,2.912,1.021,4.531,0.923c0.05-0.1,0.1-0.195,0.146-0.296
		c0.042-0.088,0.081-0.176,0.122-0.263c0.173-0.438,0.334-0.881,0.475-1.331c0.336-1.071,0.914-2.166,1.121-3.271
		c0.112-0.596,0.608-1.192,0.608-1.792c0-0.002,0-0.003,0-0.007c0-0.13-0.278-0.26-0.263-0.391c0.037-0.314-0.084-0.63-0.053-0.945
		c0.127-1.291,0.134-2.589,0.176-3.887C23.976,29.594,23.841,26.95,23.622,24.319z"/>
	<path fill="#FFFFFF" d="M28.953,32.396c-0.113,3.052-0.348,6.293-1.07,9.372l9.295-5.434c2.166-1.258,3.853-4.333,3.853-6.838
		v-0.742L25.764,12.194c1.001,1.315,1.517,3.137,1.882,4.726C28.807,21.945,29.144,27.257,28.953,32.396z"/>
	<path fill="#FFFFFF" d="M37.178,8.318L24.865,1.159c-2.167-1.255-5.691-1.255-7.858,0L4.81,8.318
		c-2.167,1.256-3.779,4.332-3.779,6.835v14.344c0,0.778,0.022,1.612,0.323,2.429c0.518-2.136,0.796-4.307,1.239-6.461
		c0.335-1.632,0.638-3.315,1.284-4.857c0.552-1.318,1.309-2.949,2.888-3.257c1.693-0.33,3.054,0.499,3.904,1.935l4.954,5.267
		c0.436-2.584,0.92-5.161,1.668-7.671c0.542-1.818,1.227-4.31,2.793-5.559c2.036-1.624,4.157-1.13,5.681,0.872l15.266,16.561V15.153
		C41.031,12.65,39.344,9.574,37.178,8.318z"/>
	<path fill="#FFFFFF" d="M12.977,26.283c0.451,1.84,0.859,3.698,1.344,5.534c0.317-1.437,0.573-2.892,0.813-4.34
		c0.162-0.974,0.32-1.949,0.485-2.925l-4.958-5.267C11.893,21.368,12.407,23.958,12.977,26.283z"/>
</g>
</svg>
