<svg height="512pt" viewBox="0 -76 512 512" width="512pt" xmlns="http://www.w3.org/2000/svg"><path d="m452.375 259.503906c-16.320312 7.664063-27.625 24.238282-27.625 43.464844 0 19.222656 11.304688 35.796875 27.625 43.460938 16.320312-7.664063 27.625-24.238282 27.625-43.460938 0-19.226562-11.304688-35.800781-27.625-43.464844zm0 0" fill="#898998"/><path d="m414.046875 182.984375h-4.382813l-21.609374-97.632813-41.601563 17.792969-.101563 98.234375c-.007812 8.378906-2.136718 16.617188-6.1875 23.953125-8.738281 15.816407-25.382812 25.636719-43.453124 25.636719h-69.210938v-89.808594c0-6.070312-2.695312-11.5-6.9375-15.195312-60.527344 16.414062-105.046875 71.726562-105.046875 137.445312v7.558594h210.496094c14.203125 0 27.300781-7.65625 34.269531-20.03125h141.71875c0-48.574219-39.378906-87.953125-87.953125-87.953125zm0 0" fill="#ffb954"/><path d="m394.464844 10h-29.761719c-6.371094 0-11.535156 5.164062-11.535156 11.535156v24.929688c0 6.371094 5.164062 11.535156 11.535156 11.535156h29.761719c6.371094 0 11.535156-5.164062 11.535156-11.535156v-24.929688c0-6.371094-5.164062-11.535156-11.535156-11.535156zm0 0" fill="#feda9b"/><path d="m301.128906 26c-8.839844 0-16 7.164062-16 16 0 8.839844 7.160156 16 16 16h15.902344v-32zm0 0" fill="#9bf"/><path d="m227.5 117c0-13.253906-10.746094-24-24-24h-29.667969c-13.253906 0-24 10.746094-24 24 0 13.257812 10.746094 24 24 24h29.667969c13.253906 0 24-10.742188 24-24zm0 0" fill="#4dbaf6"/><path d="m142.5 258.667969c-17.324219 7.242187-29.5 24.347656-29.5 44.300781 0 19.949219 12.175781 37.054688 29.5 44.296875 17.324219-7.242187 29.5-24.347656 29.5-44.296875 0-19.953125-12.175781-37.058594-29.5-44.300781zm0 0" fill="#898998"/><path d="m139.632812 232.714844c.003907-.003906.007813-.007813.011719-.011719 4.59375-3.601563 9.625-6.671875 15-9.121094-9.339843-4.253906-19.710937-6.644531-30.644531-6.644531-17.234375 0-33.09375 5.890625-45.675781 15.765625-.003907.003906-.007813.007813-.011719.011719-17.257812 13.554687-28.339844 34.609375-28.339844 58.253906h61.320313c0-23.644531 11.082031-44.699219 28.339843-58.253906zm0 0" fill="#fff"/><path d="m154.644531 223.582031c-5.375 2.449219-10.40625 5.519531-15 9.125-.003906.003907-.007812.007813-.011719.007813-17.257812 13.554687-28.34375 34.609375-28.34375 58.253906h86.738282c0-29.953125-17.796875-55.730469-43.382813-67.386719zm0 0" fill="#feda9b"/><path d="m269.351562 340.933594c-2.632812 0-5.210937 1.070312-7.070312 2.929687-1.859375 1.871094-2.929688 4.441407-2.929688 7.070313s1.070313 5.210937 2.929688 7.070312c1.859375 1.871094 4.4375 2.941406 7.070312 2.941406 2.628907 0 5.207032-1.070312 7.070313-2.941406 1.855469-1.859375 2.929687-4.429687 2.929687-7.070312 0-2.628906-1.070312-5.210938-2.929687-7.070313-1.863281-1.859375-4.441406-2.929687-7.070313-2.929687zm0 0"/><path d="m417.707031 173.050781-23.304687-105.285156c12.179687-1.652344 21.597656-12.109375 21.597656-24.734375v-18.0625c0-13.769531-11.199219-24.96875-24.96875-24.96875h-59.03125c-10.605469 0-19.683594 6.652344-23.296875 16h-36.574219c-14.339844 0-26 11.664062-26 26s11.660156 26 26 26h64.34375v25c0 5.523438 4.476563 10 10 10 5.523438 0 10-4.476562 10-10v-25h17.5l25.101563 113.417969-47.503907 84.613281c-5.191406 9.210938-14.984374 14.9375-25.558593 14.9375h-118.597657c-4.960937-41.636719-40.464843-74.03125-83.414062-74.03125-19.003906 0-36.933594 6.191406-51.851562 17.902344-.015626.011718-.03125.023437-.046876.039062-17.769531 13.96875-28.9375 34.019532-31.542968 56.089844h-20.535156c1.304687-71.890625 60.191406-129.96875 132.382812-129.96875h54.9375c5.601562 0 10.15625 4.558594 10.15625 10.15625v89.8125c0 5.519531 4.476562 10 10 10h69.210938c21.707031 0 41.710937-11.804688 52.203124-30.800781 4.855469-8.789063 7.429688-18.742188 7.441407-28.777344l.046875-34.226563c.007812-5.523437-4.464844-10.003906-9.988282-10.011718-.003906 0-.007812 0-.011718 0-5.515625 0-9.992188 4.464844-10 9.984375l-.046875 34.230469c-.007813 6.671874-1.71875 13.285156-4.945313 19.128906-6.976562 12.625-20.269531 20.472656-34.695312 20.472656h-59.214844v-79.8125c0-8.3125-3.382812-15.851562-8.839844-21.308594 5.488282-6.042968 8.839844-14.0625 8.839844-22.847656 0-18.746094-15.253906-34-34-34h-75.332031c-18.75 0-34 15.253906-34 34 0 8.558594 3.1875 16.386719 8.425781 22.367188-59.648438 20.691406-102.59375 77.441406-102.59375 144.042968v7.558594c0 5.523438 4.476562 10 10 10h56.199219c-.128907.644531-.199219 1.3125-.199219 2 0 14.511719 5.371094 27.789062 14.214844 37.96875h-40.125c-5.523438 0-10 4.476562-10 10s4.476562 10 10 10h187.410156c5.523438 0 10-4.476562 10-10s-4.476562-10-10-10h-59.714844c8.84375-10.183594 14.214844-23.457031 14.214844-37.96875 0-.6875-.070312-1.355469-.199219-2h144.210938c15.746093 0 30.460937-7.546875 39.683593-20.03125h12.664063c-2.847656 6.929688-4.359375 14.398438-4.359375 22.03125 0 14.511719 5.371094 27.785156 14.214844 37.96875h-69.441406c-5.519532 0-10 4.476562-10 10s4.480468 10 10 10h112.074218c.382813.007812.765625.03125 1.152344.03125 31.980469 0 58-26.019531 58-58 0-7.632812-1.511719-15.101562-4.359375-22.03125h16.359375c5.523438 0 10-4.476562 10-10 0-52.785156-41.972656-95.953125-94.292969-97.886719zm-289.539062-42.050781c-7.722657 0-14-6.277344-14-14 0-7.71875 6.277343-14 14-14h75.332031c7.71875 0 14 6.28125 14 14 0 7.722656-6.28125 14-14 14zm33.832031 171.96875c0 20.5625-16.425781 37.355469-36.847656 37.96875h-2.308594c-20.417969-.613281-36.84375-17.40625-36.84375-37.96875 0-.6875-.070312-1.355469-.199219-2h76.398438c-.128907.644531-.199219 1.3125-.199219 2zm-101.257812-22c2.480468-15.886719 10.828124-30.242188 23.746093-40.390625.019531-.011719.035157-.027344.050781-.039063 11.355469-8.898437 24.996094-13.601562 39.460938-13.601562 31.90625 0 58.4375 23.453125 63.25 54.027344h-126.507812zm205.386718-238.96875c0-3.308594 2.6875-6 6-6h34.902344v7.03125c0 1.703125.171875 3.363281.496094 4.96875h-35.398438c-3.3125 0-6-2.691406-6-6zm65.871094 6c-2.738281 0-4.96875-2.226562-4.96875-4.96875v-18.0625c0-2.738281 2.230469-4.96875 4.96875-4.96875h59.03125c2.738281 0 4.96875 2.230469 4.96875 4.96875v18.0625c0 2.742188-2.230469 4.96875-4.96875 4.96875zm138 254.96875c0 20.820312-16.839844 37.777344-37.613281 37.988281-.128907-.003906-.257813-.019531-.386719-.019531h-1.152344c-20.421875-.613281-36.847656-17.40625-36.847656-37.96875 0-7.945312 2.476562-15.625 7.039062-22.03125h61.921876c4.5625 6.40625 7.039062 14.085938 7.039062 22.03125zm-2.257812-42.03125h-90.378907l38.132813-67.917969c38.941406.714844 71.003906 30.109375 75.863281 67.917969zm0 0"/><path d="m346.472656 138.152344c5.523438 0 10-4.476563 10-10 0-5.523438-4.476562-10-10-10h-.035156c-5.523438 0-9.984375 4.476562-9.984375 10 0 5.523437 4.496094 10 10.019531 10zm0 0"/></svg>